<svg width="24" height="24" viewBox="0 0 24 24" fill="none" xmlns="http://www.w3.org/2000/svg">
<path d="M11.99 4.99954V2.20954C11.99 1.75954 11.45 1.53954 11.14 1.85954L7.35002 5.64954C7.15002 5.84954 7.15002 6.15954 7.35002 6.35954L11.14 10.1495C11.2099 10.2181 11.2984 10.2646 11.3944 10.2833C11.4905 10.302 11.5899 10.2921 11.6804 10.2549C11.7709 10.2176 11.8485 10.1546 11.9035 10.0737C11.9586 9.99271 11.9886 9.89741 11.99 9.79954V6.99954C15.72 6.99954 18.67 10.4195 17.85 14.2895C17.38 16.5595 15.54 18.3895 13.28 18.8595C9.71002 19.6095 6.53002 17.1595 6.05002 13.8495C6.01752 13.6131 5.90021 13.3966 5.71992 13.2402C5.53964 13.0838 5.30867 12.9983 5.07002 12.9995C4.47002 12.9995 3.99002 13.5295 4.07002 14.1295C4.69002 18.5195 8.87002 21.7695 13.6 20.8495C16.72 20.2395 19.23 17.7295 19.84 14.6095C20.83 9.47954 16.94 4.99954 11.99 4.99954V4.99954ZM10.89 15.9995H10.04V12.7395L9.03002 13.0495V12.3595L10.8 11.7295H10.89V15.9995ZM15.17 14.2395C15.17 14.5595 15.14 14.8395 15.07 15.0595C15 15.2795 14.9 15.4795 14.78 15.6295C14.66 15.7795 14.5 15.8895 14.33 15.9595C14.16 16.0295 13.96 16.0595 13.74 16.0595C13.52 16.0595 13.33 16.0295 13.15 15.9595C12.97 15.8895 12.82 15.7795 12.69 15.6295C12.56 15.4795 12.46 15.2895 12.39 15.0595C12.32 14.8295 12.28 14.5595 12.28 14.2395V13.4995C12.28 13.1795 12.31 12.8995 12.38 12.6795C12.45 12.4595 12.55 12.2595 12.67 12.1095C12.79 11.9595 12.95 11.8495 13.12 11.7795C13.29 11.7095 13.49 11.6795 13.71 11.6795C13.93 11.6795 14.12 11.7095 14.3 11.7795C14.48 11.8495 14.63 11.9595 14.76 12.1095C14.89 12.2595 14.99 12.4495 15.06 12.6795C15.13 12.9095 15.17 13.1795 15.17 13.4995V14.2395V14.2395ZM14.32 13.3795C14.32 13.1895 14.31 13.0295 14.28 12.8995C14.25 12.7695 14.21 12.6695 14.16 12.5895C14.11 12.5095 14.05 12.4495 13.97 12.4195C13.89 12.3895 13.81 12.3695 13.72 12.3695C13.63 12.3695 13.54 12.3895 13.47 12.4195C13.4 12.4495 13.33 12.5095 13.28 12.5895C13.23 12.6695 13.19 12.7695 13.16 12.8995C13.13 13.0295 13.12 13.1895 13.12 13.3795V14.3495C13.12 14.5395 13.13 14.6995 13.16 14.8295C13.19 14.9595 13.23 15.0695 13.28 15.1495C13.33 15.2295 13.39 15.2895 13.47 15.3195C13.55 15.3495 13.63 15.3695 13.72 15.3695C13.81 15.3695 13.9 15.3495 13.97 15.3195C14.04 15.2895 14.11 15.2295 14.16 15.1495C14.21 15.0695 14.25 14.9595 14.27 14.8295C14.29 14.6995 14.31 14.5395 14.31 14.3495V13.3795H14.32Z" fill="#485380"/>
</svg>
