
<svg width="375" height="764" viewBox="0 0 375 764" fill="none" xmlns="http://www.w3.org/2000/svg">
<mask id="mask0" mask-type="alpha" maskUnits="userSpaceOnUse" x="0" y="0" width="375" height="764">
<path d="M0 0H375V764H0V0Z" fill="black"/>
</mask>
<g mask="url(#mask0)">
<path d="M157.641 20L157.641 89.282L97.641 54.641L157.641 20Z" fill="#3D4755"/>
<path d="M62.9727 265.395L62.9727 363.76L-22.2133 314.578L62.9727 265.395Z" fill="#3D4755"/>
<path d="M391.973 484.395L391.973 582.76L306.787 533.578L391.973 484.395Z" fill="#3D4755"/>
<path d="M215.973 694.395L215.973 792.76L130.787 743.578L215.973 694.395Z" fill="#3D4755"/>
<path d="M91.4331 675.879L21.879 745.433L-3.57956 650.42L91.4331 675.879Z" fill="#3D4755"/>
<path d="M41.6267 62.637L-7.3631 111.627L-25.2946 44.7055L41.6267 62.637Z" fill="#3D4755"/>
<path d="M400.627 73.637L351.637 122.627L333.705 55.7055L400.627 73.637Z" fill="#3D4755"/>
<path d="M394.627 171.637L345.637 220.627L327.705 153.706L394.627 171.637Z" fill="#3D4755"/>
<path d="M268.785 131.975L241.975 158.785L232.162 122.163L268.785 131.975Z" fill="#3D4755"/>
<path d="M369.954 292.144L343.144 318.953L333.331 282.331L369.954 292.144Z" fill="#3D4755"/>
<path d="M110.953 623.144L84.1439 649.953L74.331 613.331L110.953 623.144Z" fill="#3D4755"/>
<path d="M20.7543 507.766L-12.0803 488.809L20.7543 469.852L20.7543 507.766Z" fill="#3D4755"/>
<path d="M298.847 655.859L266.012 636.902L298.847 617.945L298.847 655.859Z" fill="#3D4755"/>
<path d="M94.4245 161.172L27.1721 228.425L2.556 136.556L94.4245 161.172Z" fill="#3D4755"/>
<path d="M390.293 712.04L323.04 779.293L298.424 687.424L390.293 712.04Z" fill="#3D4755"/>
</g>
</svg>
