<svg width="24" height="24" viewBox="0 0 24 24" fill="none" xmlns="http://www.w3.org/2000/svg">
<path fill-rule="evenodd" clip-rule="evenodd" d="M16.3096 2.97631C17.6114 1.67456 19.7219 1.67456 21.0237 2.97631C22.3254 4.27806 22.3254 6.38861 21.0237 7.69036L16.714 12L21.0237 16.3096C22.3254 17.6114 22.3254 19.7219 21.0237 21.0237C19.7219 22.3254 17.6114 22.3254 16.3096 21.0237L12 16.714L7.69036 21.0237C6.38861 22.3254 4.27806 22.3254 2.97631 21.0237C1.67456 19.7219 1.67456 17.6114 2.97631 16.3096L7.28596 12L2.97631 7.69036C1.67456 6.38861 1.67456 4.27806 2.97631 2.97631C4.27806 1.67456 6.38861 1.67456 7.69036 2.97631L12 7.28596L16.3096 2.97631Z" fill="#041334"/>
</svg>
