<svg width="24" height="24" viewBox="0 0 24 24" fill="none" xmlns="http://www.w3.org/2000/svg">
<path d="M12 23.9997C18.2592 23.9997 23.3333 18.9256 23.3333 12.6663C23.3333 6.40711 18.2592 1.33301 12 1.33301C5.74077 1.33301 0.666668 6.40711 0.666668 12.6663C0.666668 18.9256 5.74077 23.9997 12 23.9997Z" fill="#F4900C"/>
<path d="M12 22.6667C18.2592 22.6667 23.3333 17.5926 23.3333 11.3333C23.3333 5.07411 18.2592 0 12 0C5.74077 0 0.666668 5.07411 0.666668 11.3333C0.666668 17.5926 5.74077 22.6667 12 22.6667Z" fill="#FFCC4D"/>
<path d="M12 21.3337C17.1547 21.3337 21.3333 17.155 21.3333 12.0003C21.3333 6.84567 17.1547 2.66699 12 2.66699C6.84534 2.66699 2.66667 6.84567 2.66667 12.0003C2.66667 17.155 6.84534 21.3337 12 21.3337Z" fill="#FFE8B6"/>
<path d="M12 20.6667C17.1547 20.6667 21.3333 16.488 21.3333 11.3333C21.3333 6.17868 17.1547 2 12 2C6.84534 2 2.66667 6.17868 2.66667 11.3333C2.66667 16.488 6.84534 20.6667 12 20.6667Z" fill="#FFAC33"/>
<path d="M7.2 6.49397C7.2 6.17254 7.43635 5.90002 7.75454 5.85457L9.29999 5.63379L9.23761 6.2576C9.14819 7.15182 8.03074 7.50298 7.44588 6.82065L7.22591 6.56402C7.20919 6.54451 7.2 6.51966 7.2 6.49397Z" fill="#F4900C"/>
<path d="M8.4 7.55958C8.4 6.41362 9.45663 5.55943 10.5772 5.79954L15.3771 6.82811C16.2071 7.00595 16.8 7.73938 16.8 8.58815V13.9064C16.8 15.0524 15.7434 15.9066 14.6228 15.6665L9.82285 14.6379C8.99292 14.46 8.4 13.7266 8.4 12.8778V7.55958Z" fill="#F4900C"/>
<path d="M8.4 7.43359C8.4 6.66622 9.11387 6.09833 9.86159 6.27088L14.8047 7.41161C15.6215 7.60008 16.2 8.32733 16.2 9.16551V13.9362C16.2 14.711 15.7042 15.3988 14.9692 15.6438L14.8094 15.6971C14.5403 15.7868 14.2538 15.8116 13.9732 15.7696L9.93299 15.1635C9.05185 15.0314 8.4 14.2744 8.4 13.3834V7.43359Z" fill="#FFE8B6"/>
<mask id="mask0" mask-type="alpha" maskUnits="userSpaceOnUse" x="8" y="6" width="9" height="10">
<path d="M8.4 7.43359C8.4 6.66622 9.11387 6.09833 9.86159 6.27088L14.8047 7.41161C15.6215 7.60008 16.2 8.32733 16.2 9.16551V13.9362C16.2 14.711 15.7042 15.3988 14.9692 15.6438L14.8094 15.6971C14.5403 15.7868 14.2538 15.8116 13.9732 15.7696L9.93299 15.1635C9.05185 15.0314 8.4 14.2744 8.4 13.3834V7.43359Z" fill="#FFE8B6"/>
</mask>
<g mask="url(#mask0)">
<path d="M7.50002 7.79394C7.50002 7.02657 8.21388 6.45868 8.9616 6.63123L13.9048 7.77196C14.7215 7.96043 15.3 8.68768 15.3 9.52586V15.5939L13.9094 16.0575C13.6403 16.1472 13.3538 16.172 13.0732 16.1299L9.033 15.5239C8.15187 15.3917 7.50002 14.6348 7.50002 13.7438V7.79394Z" fill="#FFAC33"/>
</g>
<path d="M7.2 6.5332L13.6047 8.01122C14.4214 8.19969 15 8.92694 15 9.76512V15.0705C15 16.228 13.9231 17.0847 12.7952 16.8244L8.59525 15.8552C7.77853 15.6667 7.2 14.9394 7.2 14.1013V6.5332Z" fill="#FFD983"/>
<path d="M9.57143 10.7426C9.57143 9.84108 10.3962 9.16495 11.2802 9.34175C11.9479 9.4753 12.4286 10.0616 12.4286 10.7426V12.7569C12.4286 12.8827 12.3135 12.977 12.1902 12.9523L9.68344 12.451C9.61831 12.4379 9.57143 12.3808 9.57143 12.3143V10.7426Z" fill="#FFE8B6"/>
<circle cx="12.4286" cy="11.8576" r="0.571429" fill="#FFE8B6"/>
<circle cx="9.57143" cy="11.2853" r="0.571429" fill="#FFE8B6"/>
</svg>
