<svg width="52" height="24" viewBox="0 0 52 24" fill="none" xmlns="http://www.w3.org/2000/svg">
<path d="M12 23.9997C18.2592 23.9997 23.3333 18.9256 23.3333 12.6663C23.3333 6.40711 18.2592 1.33301 12 1.33301C5.74077 1.33301 0.666664 6.40711 0.666664 12.6663C0.666664 18.9256 5.74077 23.9997 12 23.9997Z" fill="#F4900C"/>
<path d="M12 22.6667C18.2592 22.6667 23.3333 17.5926 23.3333 11.3333C23.3333 5.07411 18.2592 0 12 0C5.74077 0 0.666664 5.07411 0.666664 11.3333C0.666664 17.5926 5.74077 22.6667 12 22.6667Z" fill="#FFCC4D"/>
<path d="M12 21.3337C17.1547 21.3337 21.3333 17.155 21.3333 12.0003C21.3333 6.84567 17.1547 2.66699 12 2.66699C6.84534 2.66699 2.66666 6.84567 2.66666 12.0003C2.66666 17.155 6.84534 21.3337 12 21.3337Z" fill="#FFE8B6"/>
<path d="M12 20.6667C17.1547 20.6667 21.3333 16.488 21.3333 11.3333C21.3333 6.17868 17.1547 2 12 2C6.84534 2 2.66666 6.17868 2.66666 11.3333C2.66666 16.488 6.84534 20.6667 12 20.6667Z" fill="#FFAC33"/>
<path d="M7.2 6.49397C7.2 6.17254 7.43635 5.90002 7.75454 5.85457L9.29999 5.63379L9.23761 6.2576C9.14819 7.15182 8.03074 7.50298 7.44588 6.82065L7.22591 6.56402C7.20919 6.54451 7.2 6.51966 7.2 6.49397Z" fill="#F4900C"/>
<path d="M8.4 7.55958C8.4 6.41362 9.45663 5.55943 10.5772 5.79954L15.3771 6.82811C16.2071 7.00595 16.8 7.73938 16.8 8.58815V13.9064C16.8 15.0524 15.7434 15.9066 14.6228 15.6665L9.82285 14.6379C8.99292 14.46 8.4 13.7266 8.4 12.8778V7.55958Z" fill="#F4900C"/>
<path d="M8.4 7.43359C8.4 6.66622 9.11387 6.09833 9.86159 6.27088L14.8047 7.41161C15.6215 7.60008 16.2 8.32733 16.2 9.16551V13.9362C16.2 14.711 15.7042 15.3988 14.9692 15.6438L14.8094 15.6971C14.5403 15.7868 14.2538 15.8116 13.9732 15.7696L9.93299 15.1635C9.05185 15.0314 8.4 14.2744 8.4 13.3834V7.43359Z" fill="#FFE8B6"/>
<mask id="mask0" mask-type="alpha" maskUnits="userSpaceOnUse" x="8" y="6" width="9" height="10">
<path d="M8.4 7.43359C8.4 6.66622 9.11387 6.09833 9.86159 6.27088L14.8047 7.41161C15.6215 7.60008 16.2 8.32733 16.2 9.16551V13.9362C16.2 14.711 15.7042 15.3988 14.9692 15.6438L14.8094 15.6971C14.5403 15.7868 14.2538 15.8116 13.9732 15.7696L9.93299 15.1635C9.05185 15.0314 8.4 14.2744 8.4 13.3834V7.43359Z" fill="#FFE8B6"/>
</mask>
<g mask="url(#mask0)">
<path d="M7.50002 7.79394C7.50002 7.02657 8.21388 6.45868 8.9616 6.63123L13.9048 7.77196C14.7215 7.96043 15.3 8.68768 15.3 9.52586V15.5939L13.9094 16.0575C13.6403 16.1472 13.3538 16.172 13.0732 16.1299L9.033 15.5239C8.15187 15.3917 7.50002 14.6348 7.50002 13.7438V7.79394Z" fill="#FFAC33"/>
</g>
<path d="M7.2 6.5332L13.6047 8.01122C14.4214 8.19969 15 8.92694 15 9.76512V15.0705C15 16.228 13.9231 17.0847 12.7952 16.8244L8.59525 15.8552C7.77853 15.6667 7.2 14.9394 7.2 14.1013V6.5332Z" fill="#FFD983"/>
<path d="M9.57143 10.7426C9.57143 9.84108 10.3962 9.16495 11.2802 9.34175C11.9479 9.4753 12.4286 10.0616 12.4286 10.7426V12.7569C12.4286 12.8827 12.3135 12.977 12.1902 12.9523L9.68344 12.451C9.61831 12.4379 9.57143 12.3808 9.57143 12.3143V10.7426Z" fill="#FFE8B6"/>
<circle cx="12.4286" cy="11.8576" r="0.571429" fill="#FFE8B6"/>
<circle cx="9.57143" cy="11.2853" r="0.571429" fill="#FFE8B6"/>
<path d="M26 23.9997C32.2592 23.9997 37.3333 18.9256 37.3333 12.6663C37.3333 6.40711 32.2592 1.33301 26 1.33301C19.7408 1.33301 14.6667 6.40711 14.6667 12.6663C14.6667 18.9256 19.7408 23.9997 26 23.9997Z" fill="#F4900C"/>
<path d="M26 22.6667C32.2592 22.6667 37.3333 17.5926 37.3333 11.3333C37.3333 5.07411 32.2592 0 26 0C19.7408 0 14.6667 5.07411 14.6667 11.3333C14.6667 17.5926 19.7408 22.6667 26 22.6667Z" fill="#FFCC4D"/>
<path d="M26 21.3337C31.1547 21.3337 35.3333 17.155 35.3333 12.0003C35.3333 6.84567 31.1547 2.66699 26 2.66699C20.8453 2.66699 16.6667 6.84567 16.6667 12.0003C16.6667 17.155 20.8453 21.3337 26 21.3337Z" fill="#FFE8B6"/>
<path d="M26 20.6667C31.1547 20.6667 35.3333 16.488 35.3333 11.3333C35.3333 6.17868 31.1547 2 26 2C20.8453 2 16.6667 6.17868 16.6667 11.3333C16.6667 16.488 20.8453 20.6667 26 20.6667Z" fill="#FFAC33"/>
<path d="M21.2 6.49397C21.2 6.17254 21.4363 5.90002 21.7545 5.85457L23.3 5.63379L23.2376 6.2576C23.1482 7.15182 22.0307 7.50298 21.4459 6.82065L21.2259 6.56402C21.2092 6.54451 21.2 6.51966 21.2 6.49397Z" fill="#F4900C"/>
<path d="M22.4 7.55958C22.4 6.41362 23.4566 5.55943 24.5771 5.79954L29.3771 6.82811C30.2071 7.00595 30.8 7.73938 30.8 8.58815V13.9064C30.8 15.0524 29.7433 15.9066 28.6228 15.6665L23.8228 14.6379C22.9929 14.46 22.4 13.7266 22.4 12.8778V7.55958Z" fill="#F4900C"/>
<path d="M22.4 7.43359C22.4 6.66622 23.1139 6.09833 23.8616 6.27088L28.8047 7.41161C29.6214 7.60008 30.2 8.32733 30.2 9.16551V13.9362C30.2 14.711 29.7042 15.3988 28.9692 15.6438L28.8094 15.6971C28.5403 15.7868 28.2537 15.8116 27.9732 15.7696L23.933 15.1635C23.0518 15.0314 22.4 14.2744 22.4 13.3834V7.43359Z" fill="#FFE8B6"/>
<mask id="mask1" mask-type="alpha" maskUnits="userSpaceOnUse" x="22" y="6" width="9" height="10">
<path d="M22.4 7.43359C22.4 6.66622 23.1139 6.09833 23.8616 6.27088L28.8047 7.41161C29.6214 7.60008 30.2 8.32733 30.2 9.16551V13.9362C30.2 14.711 29.7042 15.3988 28.9692 15.6438L28.8094 15.6971C28.5403 15.7868 28.2537 15.8116 27.9732 15.7696L23.933 15.1635C23.0518 15.0314 22.4 14.2744 22.4 13.3834V7.43359Z" fill="#FFE8B6"/>
</mask>
<g mask="url(#mask1)">
<path d="M21.5 7.79394C21.5 7.02657 22.2139 6.45868 22.9616 6.63123L27.9048 7.77196C28.7215 7.96043 29.3 8.68768 29.3 9.52586V15.5939L27.9094 16.0575C27.6403 16.1472 27.3538 16.172 27.0732 16.1299L23.033 15.5239C22.1519 15.3917 21.5 14.6348 21.5 13.7438V7.79394Z" fill="#FFAC33"/>
</g>
<path d="M21.2 6.5332L27.6047 8.01122C28.4214 8.19969 29 8.92694 29 9.76512V15.0705C29 16.228 27.9231 17.0847 26.7952 16.8244L22.5952 15.8552C21.7785 15.6667 21.2 14.9394 21.2 14.1013V6.5332Z" fill="#FFD983"/>
<path d="M23.5714 10.7426C23.5714 9.84108 24.3962 9.16495 25.2802 9.34175C25.9479 9.4753 26.4286 10.0616 26.4286 10.7426V12.7569C26.4286 12.8827 26.3135 12.977 26.1902 12.9523L23.6834 12.451C23.6183 12.4379 23.5714 12.3808 23.5714 12.3143V10.7426Z" fill="#FFE8B6"/>
<circle cx="26.4286" cy="11.8576" r="0.571429" fill="#FFE8B6"/>
<circle cx="23.5714" cy="11.2853" r="0.571429" fill="#FFE8B6"/>
<path d="M40 23.9997C46.2592 23.9997 51.3333 18.9256 51.3333 12.6663C51.3333 6.40711 46.2592 1.33301 40 1.33301C33.7408 1.33301 28.6667 6.40711 28.6667 12.6663C28.6667 18.9256 33.7408 23.9997 40 23.9997Z" fill="#F4900C"/>
<path d="M40 22.6667C46.2592 22.6667 51.3333 17.5926 51.3333 11.3333C51.3333 5.07411 46.2592 0 40 0C33.7408 0 28.6667 5.07411 28.6667 11.3333C28.6667 17.5926 33.7408 22.6667 40 22.6667Z" fill="#FFCC4D"/>
<path d="M40 21.3337C45.1547 21.3337 49.3333 17.155 49.3333 12.0003C49.3333 6.84567 45.1547 2.66699 40 2.66699C34.8453 2.66699 30.6667 6.84567 30.6667 12.0003C30.6667 17.155 34.8453 21.3337 40 21.3337Z" fill="#FFE8B6"/>
<path d="M40 20.6667C45.1547 20.6667 49.3333 16.488 49.3333 11.3333C49.3333 6.17868 45.1547 2 40 2C34.8453 2 30.6667 6.17868 30.6667 11.3333C30.6667 16.488 34.8453 20.6667 40 20.6667Z" fill="#FFAC33"/>
<path d="M35.2 6.49397C35.2 6.17254 35.4363 5.90002 35.7545 5.85457L37.3 5.63379L37.2376 6.2576C37.1482 7.15182 36.0307 7.50298 35.4459 6.82065L35.2259 6.56402C35.2092 6.54451 35.2 6.51966 35.2 6.49397Z" fill="#F4900C"/>
<path d="M36.4 7.55958C36.4 6.41362 37.4566 5.55943 38.5771 5.79954L43.3771 6.82811C44.2071 7.00595 44.8 7.73938 44.8 8.58815V13.9064C44.8 15.0524 43.7433 15.9066 42.6228 15.6665L37.8228 14.6379C36.9929 14.46 36.4 13.7266 36.4 12.8778V7.55958Z" fill="#F4900C"/>
<path d="M36.4 7.43359C36.4 6.66622 37.1139 6.09833 37.8616 6.27088L42.8047 7.41161C43.6214 7.60008 44.2 8.32733 44.2 9.16551V13.9362C44.2 14.711 43.7042 15.3988 42.9692 15.6438L42.8094 15.6971C42.5403 15.7868 42.2537 15.8116 41.9732 15.7696L37.933 15.1635C37.0518 15.0314 36.4 14.2744 36.4 13.3834V7.43359Z" fill="#FFE8B6"/>
<mask id="mask2" mask-type="alpha" maskUnits="userSpaceOnUse" x="36" y="6" width="9" height="10">
<path d="M36.4 7.43359C36.4 6.66622 37.1139 6.09833 37.8616 6.27088L42.8047 7.41161C43.6214 7.60008 44.2 8.32733 44.2 9.16551V13.9362C44.2 14.711 43.7042 15.3988 42.9692 15.6438L42.8094 15.6971C42.5403 15.7868 42.2537 15.8116 41.9732 15.7696L37.933 15.1635C37.0518 15.0314 36.4 14.2744 36.4 13.3834V7.43359Z" fill="#FFE8B6"/>
</mask>
<g mask="url(#mask2)">
<path d="M35.5 7.79394C35.5 7.02657 36.2139 6.45868 36.9616 6.63123L41.9048 7.77196C42.7215 7.96043 43.3 8.68768 43.3 9.52586V15.5939L41.9094 16.0575C41.6403 16.1472 41.3538 16.172 41.0732 16.1299L37.033 15.5239C36.1519 15.3917 35.5 14.6348 35.5 13.7438V7.79394Z" fill="#FFAC33"/>
</g>
<path d="M35.2 6.5332L41.6047 8.01122C42.4214 8.19969 43 8.92694 43 9.76512V15.0705C43 16.228 41.9231 17.0847 40.7952 16.8244L36.5952 15.8552C35.7785 15.6667 35.2 14.9394 35.2 14.1013V6.5332Z" fill="#FFD983"/>
<path d="M37.5714 10.7426C37.5714 9.84108 38.3962 9.16495 39.2802 9.34175C39.9479 9.4753 40.4286 10.0616 40.4286 10.7426V12.7569C40.4286 12.8827 40.3135 12.977 40.1902 12.9523L37.6834 12.451C37.6183 12.4379 37.5714 12.3808 37.5714 12.3143V10.7426Z" fill="#FFE8B6"/>
<circle cx="40.4286" cy="11.8576" r="0.571429" fill="#FFE8B6"/>
<circle cx="37.5714" cy="11.2853" r="0.571429" fill="#FFE8B6"/>
</svg>
