<svg width="375" height="193" viewBox="0 0 375 193" fill="none" xmlns="http://www.w3.org/2000/svg">
<mask id="mask0" mask-type="alpha" maskUnits="userSpaceOnUse" x="0" y="0" width="375" height="193">
<rect width="375" height="193" fill="#FAFAFD"/>
</mask>
<g mask="url(#mask0)">
<path d="M39.0157 49.3806C39.0157 50.2798 38.4607 50.7294 37.3508 50.7294C36.9574 50.7294 36.543 50.6521 36.1074 50.4975C35.5595 50.3149 35.2855 50.062 35.2855 49.7389C35.2855 48.5587 35.9669 47.9686 37.3297 47.9686C37.5686 47.9686 38.0463 48.1091 38.7628 48.3901C38.9314 48.7413 39.0157 49.0715 39.0157 49.3806ZM37.8988 53.2583C37.8988 54.4384 37.7723 55.6537 37.5194 56.9041C37.2244 58.3793 37.0769 59.2364 37.0769 59.4752C37.0769 59.7983 37.1401 60.1917 37.2665 60.6554C37.3789 61.0347 37.4843 61.414 37.5826 61.7934C37.0769 62.2289 36.564 62.4467 36.0442 62.4467C35.5806 62.4467 35.0748 62.1797 34.5269 61.6459C34.5831 61.5335 34.6955 61.3508 34.864 61.0979C35.2574 60.4657 35.6297 58.3442 35.981 54.7335C36.0512 54.0029 36.0864 53.7008 36.0864 53.8273C36.0864 53.6868 35.9599 53.1389 35.707 52.1835C35.8335 52.0711 36.0231 51.9095 36.276 51.6988C36.4446 51.6707 36.6132 51.6566 36.7818 51.6566C37.0628 51.6566 37.3227 51.7198 37.5616 51.8463C37.7864 52.2678 37.8988 52.7384 37.8988 53.2583ZM50.6066 54.5438C50.6066 54.8107 50.5363 55.1339 50.3958 55.5132C50.0446 56.4405 49.3843 57.1711 48.4149 57.705C47.5297 58.1826 46.5603 58.4215 45.5066 58.4215C43.7785 58.4215 42.4508 57.7682 41.5235 56.4616C40.7227 55.3236 40.3223 53.8554 40.3223 52.057C40.3223 50.5678 40.5541 49.1698 41.0178 47.8632C41.5376 46.374 42.3033 45.2079 43.3149 44.3649C44.1157 43.7046 44.9306 43.3744 45.7595 43.3744C46.9537 43.3744 47.8599 43.8942 48.4781 44.9339C48.9839 45.7769 49.2368 46.8376 49.2368 48.1161C49.2368 48.6922 49.0892 49.4157 48.7942 50.2868C48.443 51.3546 48.0496 51.8884 47.614 51.8884C47.1223 51.8884 46.75 51.5793 46.4971 50.9612C46.6376 50.8628 46.8343 50.7013 47.0872 50.4765C47.3682 50.1674 47.5087 49.5632 47.5087 48.6641C47.5087 47.793 47.4173 47.0554 47.2347 46.4513C46.9537 45.538 46.4901 45.0814 45.8438 45.0814C45.3942 45.0814 44.9025 45.3694 44.3686 45.9455C43.9611 46.381 43.6169 46.8657 43.3359 47.3996C42.6475 48.7484 42.3033 50.4273 42.3033 52.4364C42.3033 55.3587 43.3992 56.8198 45.5909 56.8198C46.5322 56.8198 47.2768 56.5529 47.8248 56.019C48.0496 55.7802 48.3797 55.2814 48.8153 54.5227C49.1103 53.9748 49.4264 53.7008 49.7636 53.7008C49.9884 53.7008 50.1851 53.7922 50.3537 53.9748C50.5223 54.1434 50.6066 54.3331 50.6066 54.5438ZM59.5783 53.8484C59.5783 55.1128 59.2622 56.1946 58.63 57.0938C57.8994 58.1194 56.93 58.6322 55.7217 58.6322C54.4854 58.6322 53.5511 58.2107 52.9188 57.3678C52.3428 56.6231 52.0548 55.6116 52.0548 54.3331C52.0548 53.0686 52.3709 51.8744 53.0031 50.7504C53.7337 49.4157 54.6821 48.7484 55.8482 48.7484C56.2135 48.7484 56.6701 48.9099 57.218 49.2331C58.7916 50.1744 59.5783 51.7128 59.5783 53.8484ZM57.7238 53.8062C57.7238 51.6566 57.204 50.5818 56.1643 50.5818C55.4197 50.5818 54.8577 51.0384 54.4783 51.9517C54.1973 52.6401 54.0569 53.4198 54.0569 54.2909C54.0569 56.1595 54.6118 57.0938 55.7217 57.0938C56.4383 57.0938 56.9721 56.7074 57.3234 55.9347C57.5903 55.3446 57.7238 54.6351 57.7238 53.8062ZM68.4263 57.8525C68.2155 58.1756 67.9556 58.3372 67.6465 58.3372C67.4077 58.3372 67.0143 58.1967 66.4663 57.9157V57.6628C66.4663 57.3537 66.4734 56.8971 66.4874 56.293C66.5155 55.6888 66.5296 55.2463 66.5296 54.9653C66.5296 51.9587 66.08 50.4554 65.1808 50.4554C64.9279 50.4554 64.6399 50.6521 64.3168 51.0455C63.3192 52.2537 62.8205 53.7079 62.8205 55.4079C62.8205 55.6467 62.8626 56.005 62.9469 56.4826C63.0453 56.9463 63.0945 57.2975 63.0945 57.5364C63.0945 57.7331 63.0031 57.8946 62.8205 58.0211C62.6378 58.1475 62.4411 58.2107 62.2304 58.2107C61.3874 58.2107 60.9659 57.6769 60.9659 56.6091V52.2046C60.9659 52.0922 60.98 51.9306 61.0081 51.7198C61.0362 51.4951 61.0502 51.3265 61.0502 51.2141C61.0502 51.0455 61.0221 50.7996 60.9659 50.4765C60.9238 50.1533 60.9027 49.9145 60.9027 49.7599C60.9027 49.5351 61.0292 49.3244 61.2821 49.1277C61.549 48.917 61.7878 48.8116 61.9986 48.8116C62.3077 48.8116 62.6238 48.9872 62.9469 49.3384L62.8837 50.1814C63.4035 49.3525 64.0428 48.938 64.8015 48.938C65.2932 48.938 65.813 49.1066 66.361 49.4438C66.9089 49.781 67.3093 50.1603 67.5622 50.5818C68.1382 51.6496 68.4263 53.0546 68.4263 54.7967V57.8525ZM74.1618 50.4554C74.1618 50.8347 73.5787 51.1017 72.4126 51.2562C72.3845 51.5653 72.3705 52.2678 72.3705 53.3636V54.7546C72.3705 55.0355 72.4126 55.45 72.4969 55.9979C72.5953 56.5459 72.6444 56.9533 72.6444 57.2202C72.6444 57.445 72.532 57.6488 72.3072 57.8314C72.0824 58 71.8576 58.0843 71.6329 58.0843C71.2816 58.0843 70.9866 57.7822 70.7477 57.1781C70.5651 56.7145 70.4738 56.2649 70.4738 55.8293V51.3616C69.8275 51.2632 69.4552 51.2 69.3568 51.1719C68.9915 51.0595 68.8089 50.8979 68.8089 50.6872C68.8089 50.631 68.8229 50.5678 68.851 50.4975C69.2163 49.9777 69.6238 49.7178 70.0734 49.7178C70.1015 49.7178 70.1436 49.7178 70.1998 49.7178C70.256 49.7318 70.2981 49.7389 70.3262 49.7389C70.6213 49.7389 70.7618 49.3946 70.7477 48.7062V47.1678C70.6634 47.0132 70.6213 46.8798 70.6213 46.7674C70.6213 46.5847 70.7267 46.4232 70.9374 46.2827C71.1622 46.1281 71.3729 46.0508 71.5696 46.0508C71.8647 46.0508 72.1457 46.1913 72.4126 46.4723C72.6795 46.7393 72.813 47.0273 72.813 47.3364C72.813 47.6736 72.7568 48.0108 72.6444 48.3479C72.5461 48.6711 72.5039 49.0083 72.518 49.3595V49.4438C73.6138 49.5562 74.1618 49.8934 74.1618 50.4554ZM81.5727 56.1455C81.5727 56.8479 81.095 57.3959 80.1396 57.7893C79.395 58.0983 78.6153 58.2529 77.8004 58.2529C75.6368 58.2529 74.5549 57.0236 74.5549 54.5649C74.5549 53.5533 74.8008 52.4293 75.2925 51.193C75.8967 49.6756 76.6273 48.917 77.4843 48.917C78.257 48.917 79.0859 49.2612 79.9711 49.9496C80.8702 50.638 81.3198 51.3546 81.3198 52.0992C81.3198 53.0265 80.9053 53.7641 80.0764 54.312C79.3458 54.8037 78.4748 55.0496 77.4632 55.0496C77.2665 55.0496 76.9504 54.9302 76.5149 54.6913C76.5711 56.026 76.9644 56.6934 77.695 56.6934C78.3132 56.6934 78.9173 56.5178 79.5074 56.1665C80.1115 55.8153 80.4979 55.6397 80.6665 55.6397C81.2706 55.6397 81.5727 55.8083 81.5727 56.1455ZM79.2756 52.1624C79.2756 51.8112 79.1702 51.481 78.9595 51.1719C78.7628 50.8488 78.4958 50.6872 78.1587 50.6872C77.695 50.6872 77.3368 50.8909 77.0839 51.2984C76.8731 51.6496 76.7678 52.0641 76.7678 52.5417C76.7678 52.8087 76.8591 53.0265 77.0417 53.195C77.2244 53.3636 77.4562 53.4479 77.7372 53.4479C78.7628 53.4479 79.2756 53.0194 79.2756 52.1624ZM89.5401 55.8715C89.5401 56.5318 89.2591 57.1079 88.6972 57.5996C88.079 58.1335 87.25 58.4004 86.2104 58.4004C85.7608 58.4145 85.2761 58.3231 84.7562 58.1264C83.0703 57.4942 82.2273 56.9814 82.2273 56.588C82.2273 55.9698 82.6699 55.6607 83.555 55.6607C83.6815 55.6607 83.8149 55.6678 83.9554 55.6818C83.9976 56.1033 84.3348 56.4405 84.967 56.6934C85.5149 56.9182 86.0418 57.0095 86.5476 56.9674C86.955 56.9393 87.1587 56.7917 87.1587 56.5248C87.1587 56.4826 87.1447 56.4194 87.1166 56.3351C87.1025 56.2508 87.0955 56.1876 87.0955 56.1455C87.0955 56.0893 86.8286 55.9769 86.2947 55.8083C85.6905 55.6256 85.3534 55.5203 85.2831 55.4922C83.6815 54.5368 82.8806 53.3847 82.8806 52.036C82.8806 51.2211 83.1125 50.4694 83.5761 49.781C84.0959 49.0223 84.7422 48.643 85.5149 48.643C86.091 48.643 86.7443 48.8678 87.4748 49.3174C88.2195 49.767 88.6761 50.2517 88.8447 50.7715C88.9571 51.1368 89.0133 51.4389 89.0133 51.6777C89.0133 51.9306 88.9781 52.1413 88.9079 52.3099C88.8236 52.5207 88.7393 52.7314 88.655 52.9422C88.3881 53.1248 88.1211 53.2161 87.8542 53.2161C87.7137 53.2161 87.4748 53.1318 87.1377 52.9632C86.8145 52.7806 86.6529 52.626 86.6529 52.4996C86.6529 52.4434 86.7372 52.2608 86.9058 51.9517C87.0042 51.769 87.0534 51.6145 87.0534 51.488C87.0534 50.6451 86.7232 50.2236 86.0629 50.2236C85.6695 50.2236 85.3674 50.4765 85.1567 50.9822C85.0021 51.3756 84.9248 51.7971 84.9248 52.2467C84.9248 52.8087 85.3253 53.3145 86.1261 53.7641C86.8567 54.0872 87.5943 54.4174 88.3389 54.7546C89.1397 55.1198 89.5401 55.4922 89.5401 55.8715ZM95.8782 50.4554C95.8782 50.8347 95.2952 51.1017 94.1291 51.2562C94.101 51.5653 94.0869 52.2678 94.0869 53.3636V54.7546C94.0869 55.0355 94.1291 55.45 94.2134 55.9979C94.3117 56.5459 94.3609 56.9533 94.3609 57.2202C94.3609 57.445 94.2485 57.6488 94.0237 57.8314C93.7989 58 93.5741 58.0843 93.3493 58.0843C92.9981 58.0843 92.703 57.7822 92.4642 57.1781C92.2815 56.7145 92.1902 56.2649 92.1902 55.8293V51.3616C91.5439 51.2632 91.1716 51.2 91.0733 51.1719C90.708 51.0595 90.5254 50.8979 90.5254 50.6872C90.5254 50.631 90.5394 50.5678 90.5675 50.4975C90.9328 49.9777 91.3402 49.7178 91.7898 49.7178C91.8179 49.7178 91.8601 49.7178 91.9163 49.7178C91.9725 49.7318 92.0146 49.7389 92.0427 49.7389C92.3377 49.7389 92.4782 49.3946 92.4642 48.7062V47.1678C92.3799 47.0132 92.3377 46.8798 92.3377 46.7674C92.3377 46.5847 92.4431 46.4232 92.6539 46.2827C92.8787 46.1281 93.0894 46.0508 93.2861 46.0508C93.5811 46.0508 93.8621 46.1913 94.1291 46.4723C94.396 46.7393 94.5295 47.0273 94.5295 47.3364C94.5295 47.6736 94.4733 48.0108 94.3609 48.3479C94.2625 48.6711 94.2204 49.0083 94.2344 49.3595V49.4438C95.3303 49.5562 95.8782 49.8934 95.8782 50.4554ZM103.422 54.4174C103.422 56.2298 103.366 57.5083 103.254 58.2529C103.183 58.6884 102.888 58.9062 102.368 58.9062C101.582 58.9062 101.23 58.5128 101.315 57.726C100.612 58.0632 99.8817 58.2318 99.123 58.2318C98.3924 58.2318 97.697 58.0492 97.0367 57.6839C96.2499 57.2483 95.8565 56.6934 95.8565 56.019C95.8565 55.3587 96.3061 54.7405 97.2053 54.1645C98.0201 53.6446 98.7858 53.3847 99.5024 53.3847H101.294V52.8789C101.308 51.4037 100.872 50.6661 99.9871 50.6661C98.8772 50.6661 98.3222 51.186 98.3222 52.2256C98.3222 52.5769 98.1255 52.7525 97.7321 52.7525C97.4933 52.7525 97.2404 52.6471 96.9734 52.4364C96.7206 52.2116 96.5941 51.9798 96.5941 51.7409C96.5941 50.9541 96.8751 50.3079 97.4371 49.8021C97.9991 49.2963 98.6734 49.0434 99.4602 49.0434C102.102 49.0434 103.422 50.8347 103.422 54.4174ZM101.294 55.176C101.294 54.895 101.083 54.7546 100.661 54.7546C98.9053 54.7546 98.0272 55.169 98.0272 55.9979C98.0272 56.4475 98.4135 56.6723 99.1862 56.6723C99.6639 56.6723 100.114 56.5388 100.535 56.2719C101.041 55.9769 101.294 55.6116 101.294 55.176ZM110.699 57.431C110.699 57.6839 110.594 57.8946 110.383 58.0632C110.187 58.2459 109.955 58.3372 109.688 58.3372C108.803 58.3372 108.36 57.1781 108.36 54.8599C108.36 53.8062 108.367 52.2256 108.381 50.1182C108.409 48.0108 108.423 46.4302 108.423 45.3765C108.423 45.2079 108.402 44.962 108.36 44.6389C108.318 44.3157 108.297 44.0769 108.297 43.9223C108.761 43.6132 109.126 43.4587 109.393 43.4587C109.702 43.4587 109.997 43.5641 110.278 43.7748C110.559 43.9715 110.699 44.2244 110.699 44.5335C110.699 44.688 110.664 44.8707 110.594 45.0814C110.496 45.4186 110.44 45.6013 110.425 45.6294C110.243 46.5004 110.151 47.7368 110.151 49.3384C110.151 51.8814 110.151 53.188 110.151 53.2583C110.194 55.0285 110.341 56.2649 110.594 56.9674C110.664 57.1641 110.699 57.3186 110.699 57.431ZM119.195 54.4174C119.195 56.2298 119.139 57.5083 119.026 58.2529C118.956 58.6884 118.661 58.9062 118.141 58.9062C117.355 58.9062 117.003 58.5128 117.088 57.726C116.385 58.0632 115.655 58.2318 114.896 58.2318C114.165 58.2318 113.47 58.0492 112.81 57.6839C112.023 57.2483 111.629 56.6934 111.629 56.019C111.629 55.3587 112.079 54.7405 112.978 54.1645C113.793 53.6446 114.559 53.3847 115.275 53.3847H117.067V52.8789C117.081 51.4037 116.645 50.6661 115.76 50.6661C114.65 50.6661 114.095 51.186 114.095 52.2256C114.095 52.5769 113.898 52.7525 113.505 52.7525C113.266 52.7525 113.013 52.6471 112.746 52.4364C112.493 52.2116 112.367 51.9798 112.367 51.7409C112.367 50.9541 112.648 50.3079 113.21 49.8021C113.772 49.2963 114.446 49.0434 115.233 49.0434C117.874 49.0434 119.195 50.8347 119.195 54.4174ZM117.067 55.176C117.067 54.895 116.856 54.7546 116.434 54.7546C114.678 54.7546 113.8 55.169 113.8 55.9979C113.8 56.4475 114.186 56.6723 114.959 56.6723C115.437 56.6723 115.886 56.5388 116.308 56.2719C116.814 55.9769 117.067 55.6116 117.067 55.176ZM127.754 55.8715C127.754 56.5318 127.473 57.1079 126.911 57.5996C126.293 58.1335 125.464 58.4004 124.424 58.4004C123.975 58.4145 123.49 58.3231 122.97 58.1264C121.284 57.4942 120.441 56.9814 120.441 56.588C120.441 55.9698 120.884 55.6607 121.769 55.6607C121.895 55.6607 122.029 55.6678 122.169 55.6818C122.211 56.1033 122.548 56.4405 123.181 56.6934C123.729 56.9182 124.256 57.0095 124.761 56.9674C125.169 56.9393 125.372 56.7917 125.372 56.5248C125.372 56.4826 125.358 56.4194 125.33 56.3351C125.316 56.2508 125.309 56.1876 125.309 56.1455C125.309 56.0893 125.042 55.9769 124.508 55.8083C123.904 55.6256 123.567 55.5203 123.497 55.4922C121.895 54.5368 121.094 53.3847 121.094 52.036C121.094 51.2211 121.326 50.4694 121.79 49.781C122.31 49.0223 122.956 48.643 123.729 48.643C124.305 48.643 124.958 48.8678 125.689 49.3174C126.433 49.767 126.89 50.2517 127.058 50.7715C127.171 51.1368 127.227 51.4389 127.227 51.6777C127.227 51.9306 127.192 52.1413 127.122 52.3099C127.037 52.5207 126.953 52.7314 126.869 52.9422C126.602 53.1248 126.335 53.2161 126.068 53.2161C125.927 53.2161 125.689 53.1318 125.351 52.9632C125.028 52.7806 124.867 52.626 124.867 52.4996C124.867 52.4434 124.951 52.2608 125.12 51.9517C125.218 51.769 125.267 51.6145 125.267 51.488C125.267 50.6451 124.937 50.2236 124.277 50.2236C123.883 50.2236 123.581 50.4765 123.37 50.9822C123.216 51.3756 123.139 51.7971 123.139 52.2467C123.139 52.8087 123.539 53.3145 124.34 53.7641C125.07 54.0872 125.808 54.4174 126.553 54.7546C127.353 55.1198 127.754 55.4922 127.754 55.8715ZM139.638 52.9843C139.638 54.4174 139.386 55.6326 138.88 56.6302C138.248 57.9227 137.292 58.569 136.014 58.569C135.325 58.569 134.735 58.3723 134.243 57.9789C134.243 58.1335 134.243 58.3442 134.243 58.6112C134.243 58.9202 134.243 59.131 134.243 59.2434C134.243 60.5921 134.398 61.6529 134.707 62.4256C134.848 62.7347 134.918 62.9314 134.918 63.0157C134.918 63.4934 134.637 63.7322 134.075 63.7322C133.653 63.7322 133.337 63.6549 133.126 63.5004C132.972 63.4021 132.817 63.0508 132.663 62.4467C132.536 61.9128 132.473 61.5054 132.473 61.2244V56.1455C132.473 55.6818 132.501 55.0496 132.557 54.2488C132.614 53.3496 132.649 52.7244 132.663 52.3731C132.677 52.0219 132.677 51.5583 132.663 50.9822C132.649 50.2517 132.642 49.781 132.642 49.5703C132.642 48.376 133.035 47.7789 133.822 47.7789C134.019 47.7789 134.201 47.8492 134.37 47.9897C134.538 48.1161 134.623 48.2707 134.623 48.4533C134.623 48.7624 134.588 49.3244 134.517 50.1393C135.065 49.3665 135.726 48.9802 136.498 48.9802C137.538 48.9802 138.339 49.4017 138.901 50.2446C139.393 50.9752 139.638 51.8884 139.638 52.9843ZM137.763 52.7946C137.763 51.2773 137.44 50.5186 136.793 50.5186C136.512 50.5186 136.147 50.7926 135.698 51.3405C134.826 52.3942 134.349 53.8484 134.264 55.7029C134.419 55.7872 134.693 56.0822 135.086 56.588C135.395 56.9674 135.705 57.157 136.014 57.157C137.18 57.157 137.763 55.7029 137.763 52.7946ZM146.467 50.7504C146.467 50.8488 146.453 51.0033 146.425 51.2141C146.13 51.6355 145.821 51.8463 145.498 51.8463C145.231 51.8463 144.992 51.6917 144.781 51.3827C144.753 50.7504 144.528 50.4343 144.107 50.4343C143.854 50.4343 143.545 51.1017 143.18 52.4364C143.011 53.0265 142.927 53.8484 142.927 54.9021C142.927 55.8996 142.976 56.5037 143.074 56.7145C143.187 56.9814 143.243 57.1641 143.243 57.2624C143.243 57.5012 143.13 57.6979 142.906 57.8525C142.695 57.993 142.456 58.0632 142.189 58.0632C141.43 58.0632 141.051 57.712 141.051 57.0095C141.051 56.9393 141.065 56.8409 141.093 56.7145C141.135 56.588 141.156 56.4967 141.156 56.4405C141.156 55.724 141.121 54.6632 141.051 53.2583C140.981 51.8393 140.946 50.7785 140.946 50.076C140.946 49.4438 141.325 49.1277 142.084 49.1277C142.533 49.1277 142.842 49.2612 143.011 49.5281C143.404 49.0926 143.847 48.8748 144.339 48.8748C144.676 48.8748 144.999 48.9661 145.308 49.1488C145.519 49.2612 145.765 49.507 146.046 49.8864C146.327 50.2517 146.467 50.5397 146.467 50.7504ZM153.933 56.1455C153.933 56.8479 153.456 57.3959 152.5 57.7893C151.756 58.0983 150.976 58.2529 150.161 58.2529C147.998 58.2529 146.916 57.0236 146.916 54.5649C146.916 53.5533 147.162 52.4293 147.653 51.193C148.257 49.6756 148.988 48.917 149.845 48.917C150.618 48.917 151.447 49.2612 152.332 49.9496C153.231 50.638 153.681 51.3546 153.681 52.0992C153.681 53.0265 153.266 53.7641 152.437 54.312C151.707 54.8037 150.836 55.0496 149.824 55.0496C149.627 55.0496 149.311 54.9302 148.876 54.6913C148.932 56.026 149.325 56.6934 150.056 56.6934C150.674 56.6934 151.278 56.5178 151.868 56.1665C152.472 55.8153 152.859 55.6397 153.027 55.6397C153.631 55.6397 153.933 55.8083 153.933 56.1455ZM151.636 52.1624C151.636 51.8112 151.531 51.481 151.32 51.1719C151.124 50.8488 150.857 50.6872 150.519 50.6872C150.056 50.6872 149.698 50.8909 149.445 51.2984C149.234 51.6496 149.129 52.0641 149.129 52.5417C149.129 52.8087 149.22 53.0265 149.402 53.195C149.585 53.3636 149.817 53.4479 150.098 53.4479C151.124 53.4479 151.636 53.0194 151.636 52.1624ZM162.399 51.7409C162.371 52.0922 162.279 52.7103 162.125 53.5955C161.984 54.3682 161.914 54.9864 161.914 55.45C161.914 55.8715 161.935 56.5037 161.977 57.3467C162.019 58.1897 162.04 58.8219 162.04 59.2434C162.04 60.1145 161.956 60.7607 161.788 61.1822C161.591 61.7161 161.219 62.1446 160.671 62.4678C160.123 62.805 159.554 62.9735 158.964 62.9735C158.345 62.9735 157.58 62.805 156.667 62.4678C155.571 62.0744 155.023 61.6388 155.023 61.1612C155.023 60.543 155.311 60.2339 155.887 60.2339C156.154 60.2339 156.336 60.3112 156.435 60.4657C156.617 60.7467 156.737 60.9153 156.793 60.9715C156.863 61.0277 157.095 61.0909 157.488 61.1612C157.882 61.2454 158.156 61.2876 158.31 61.2876C159.575 61.2876 160.207 60.4938 160.207 58.9062C160.207 58.4426 160.186 58.0492 160.144 57.726C159.54 58.2459 158.816 58.5058 157.973 58.5058C157.622 58.5058 157.229 58.4074 156.793 58.2107C156.357 58.014 156.027 57.7822 155.802 57.5153C155.367 57.0095 155.149 56.2579 155.149 55.2603C155.149 54.0661 155.423 52.7525 155.971 51.3194C156.645 49.5632 157.467 48.6851 158.437 48.6851C159.027 48.6851 159.589 48.9591 160.123 49.507C160.516 50.0269 160.91 50.5397 161.303 51.0455C161.415 51.186 161.591 51.3124 161.83 51.4248C162.125 51.5653 162.314 51.6707 162.399 51.7409ZM160.27 53.0054C160.27 52.7946 160.172 52.619 159.975 52.4785C159.891 51.186 159.441 50.5397 158.626 50.5397C158.163 50.5397 157.776 51.193 157.467 52.4996C157.243 53.4971 157.13 54.3612 157.13 55.0917C157.13 56.4686 157.488 57.157 158.205 57.157C158.879 57.157 159.413 56.6091 159.807 55.5132C160.116 54.6703 160.27 53.8343 160.27 53.0054ZM170.26 50.4765C170.26 50.912 170.204 51.5723 170.092 52.4574C169.993 53.3285 169.944 53.9888 169.944 54.4384C169.944 54.8318 169.958 55.4219 169.986 56.2087C170.028 56.9814 170.049 57.5574 170.049 57.9368C170.049 58.2599 169.775 58.4215 169.228 58.4215C168.666 58.4215 168.307 58.1475 168.153 57.5996C167.619 57.9508 167.099 58.1264 166.593 58.1264C166.186 58.1264 165.722 58.0211 165.202 57.8103C164.682 57.5855 164.317 57.3186 164.106 57.0095C163.699 56.4194 163.495 55.4711 163.495 54.1645C163.495 53.7149 163.509 52.9281 163.537 51.8041C163.58 50.8066 163.594 50.0269 163.58 49.4649C164.001 49.1558 164.352 49.0013 164.633 49.0013C165.308 49.0013 165.645 49.3314 165.645 49.9917C165.645 50.2165 165.61 50.5537 165.539 51.0033C165.483 51.4529 165.455 51.7901 165.455 52.0149V54.9864C165.455 55.3236 165.547 55.6748 165.729 56.0401C165.954 56.4616 166.221 56.6723 166.53 56.6723C167.134 56.6723 167.584 56.286 167.879 55.5132C168.075 54.9793 168.174 54.3331 168.174 53.5744V51.0455C168.174 50.7223 168.089 50.3219 167.921 49.8442C168.272 49.5211 168.609 49.3595 168.932 49.3595C169.27 49.3595 169.572 49.4649 169.839 49.6756C170.12 49.8864 170.26 50.1533 170.26 50.4765ZM179.297 57.8525C179.086 58.1756 178.826 58.3372 178.517 58.3372C178.278 58.3372 177.885 58.1967 177.337 57.9157V57.6628C177.337 57.3537 177.344 56.8971 177.358 56.293C177.386 55.6888 177.4 55.2463 177.4 54.9653C177.4 51.9587 176.951 50.4554 176.052 50.4554C175.799 50.4554 175.511 50.6521 175.188 51.0455C174.19 52.2537 173.691 53.7079 173.691 55.4079C173.691 55.6467 173.733 56.005 173.818 56.4826C173.916 56.9463 173.965 57.2975 173.965 57.5364C173.965 57.7331 173.874 57.8946 173.691 58.0211C173.509 58.1475 173.312 58.2107 173.101 58.2107C172.258 58.2107 171.837 57.6769 171.837 56.6091V52.2046C171.837 52.0922 171.851 51.9306 171.879 51.7198C171.907 51.4951 171.921 51.3265 171.921 51.2141C171.921 51.0455 171.893 50.7996 171.837 50.4765C171.795 50.1533 171.774 49.9145 171.774 49.7599C171.774 49.5351 171.9 49.3244 172.153 49.1277C172.42 48.917 172.659 48.8116 172.869 48.8116C173.179 48.8116 173.495 48.9872 173.818 49.3384L173.755 50.1814C174.274 49.3525 174.914 48.938 175.672 48.938C176.164 48.938 176.684 49.1066 177.232 49.4438C177.78 49.781 178.18 50.1603 178.433 50.5818C179.009 51.6496 179.297 53.0546 179.297 54.7967V57.8525ZM185.033 50.4554C185.033 50.8347 184.45 51.1017 183.283 51.2562C183.255 51.5653 183.241 52.2678 183.241 53.3636V54.7546C183.241 55.0355 183.283 55.45 183.368 55.9979C183.466 56.5459 183.515 56.9533 183.515 57.2202C183.515 57.445 183.403 57.6488 183.178 57.8314C182.953 58 182.728 58.0843 182.504 58.0843C182.152 58.0843 181.857 57.7822 181.619 57.1781C181.436 56.7145 181.345 56.2649 181.345 55.8293V51.3616C180.698 51.2632 180.326 51.2 180.228 51.1719C179.862 51.0595 179.68 50.8979 179.68 50.6872C179.68 50.631 179.694 50.5678 179.722 50.4975C180.087 49.9777 180.495 49.7178 180.944 49.7178C180.972 49.7178 181.014 49.7178 181.071 49.7178C181.127 49.7318 181.169 49.7389 181.197 49.7389C181.492 49.7389 181.633 49.3946 181.619 48.7062V47.1678C181.534 47.0132 181.492 46.8798 181.492 46.7674C181.492 46.5847 181.597 46.4232 181.808 46.2827C182.033 46.1281 182.244 46.0508 182.44 46.0508C182.735 46.0508 183.016 46.1913 183.283 46.4723C183.55 46.7393 183.684 47.0273 183.684 47.3364C183.684 47.6736 183.628 48.0108 183.515 48.3479C183.417 48.6711 183.375 49.0083 183.389 49.3595V49.4438C184.485 49.5562 185.033 49.8934 185.033 50.4554ZM192.577 54.4174C192.577 56.2298 192.52 57.5083 192.408 58.2529C192.338 58.6884 192.043 58.9062 191.523 58.9062C190.736 58.9062 190.385 58.5128 190.469 57.726C189.767 58.0632 189.036 58.2318 188.277 58.2318C187.547 58.2318 186.851 58.0492 186.191 57.6839C185.404 57.2483 185.011 56.6934 185.011 56.019C185.011 55.3587 185.46 54.7405 186.36 54.1645C187.175 53.6446 187.94 53.3847 188.657 53.3847H190.448V52.8789C190.462 51.4037 190.027 50.6661 189.141 50.6661C188.032 50.6661 187.477 51.186 187.477 52.2256C187.477 52.5769 187.28 52.7525 186.886 52.7525C186.648 52.7525 186.395 52.6471 186.128 52.4364C185.875 52.2116 185.748 51.9798 185.748 51.7409C185.748 50.9541 186.029 50.3079 186.591 49.8021C187.153 49.2963 187.828 49.0434 188.615 49.0434C191.256 49.0434 192.577 50.8347 192.577 54.4174ZM190.448 55.176C190.448 54.895 190.237 54.7546 189.816 54.7546C188.06 54.7546 187.182 55.169 187.182 55.9979C187.182 56.4475 187.568 56.6723 188.341 56.6723C188.818 56.6723 189.268 56.5388 189.689 56.2719C190.195 55.9769 190.448 55.6116 190.448 55.176ZM201.135 55.8715C201.135 56.5318 200.854 57.1079 200.292 57.5996C199.674 58.1335 198.845 58.4004 197.806 58.4004C197.356 58.4145 196.871 58.3231 196.352 58.1264C194.666 57.4942 193.823 56.9814 193.823 56.588C193.823 55.9698 194.265 55.6607 195.15 55.6607C195.277 55.6607 195.41 55.6678 195.551 55.6818C195.593 56.1033 195.93 56.4405 196.562 56.6934C197.11 56.9182 197.637 57.0095 198.143 56.9674C198.55 56.9393 198.754 56.7917 198.754 56.5248C198.754 56.4826 198.74 56.4194 198.712 56.3351C198.698 56.2508 198.691 56.1876 198.691 56.1455C198.691 56.0893 198.424 55.9769 197.89 55.8083C197.286 55.6256 196.949 55.5203 196.878 55.4922C195.277 54.5368 194.476 53.3847 194.476 52.036C194.476 51.2211 194.708 50.4694 195.171 49.781C195.691 49.0223 196.337 48.643 197.11 48.643C197.686 48.643 198.34 48.8678 199.07 49.3174C199.815 49.767 200.271 50.2517 200.44 50.7715C200.552 51.1368 200.609 51.4389 200.609 51.6777C200.609 51.9306 200.573 52.1413 200.503 52.3099C200.419 52.5207 200.335 52.7314 200.25 52.9422C199.983 53.1248 199.716 53.2161 199.449 53.2161C199.309 53.2161 199.07 53.1318 198.733 52.9632C198.41 52.7806 198.248 52.626 198.248 52.4996C198.248 52.4434 198.332 52.2608 198.501 51.9517C198.599 51.769 198.649 51.6145 198.649 51.488C198.649 50.6451 198.318 50.2236 197.658 50.2236C197.265 50.2236 196.963 50.4765 196.752 50.9822C196.597 51.3756 196.52 51.7971 196.52 52.2467C196.52 52.8087 196.921 53.3145 197.721 53.7641C198.452 54.0872 199.19 54.4174 199.934 54.7546C200.735 55.1198 201.135 55.4922 201.135 55.8715ZM41.924 75.9075C41.7975 76.6099 41.6781 77.3054 41.5657 77.9938C41.4252 78.8087 41.3549 79.5041 41.3549 80.0802V85.8124C41.3549 86.8521 41.0529 87.6459 40.4488 88.1938C39.8587 88.7417 39.0438 89.0157 38.0041 89.0157C37.3297 89.0157 36.5851 88.8401 35.7702 88.4888C34.8008 88.0814 34.3161 87.5897 34.3161 87.0136C34.3161 86.8169 34.3934 86.6483 34.5479 86.5078C34.7165 86.3814 34.8992 86.3182 35.0959 86.3182C35.2223 86.3182 35.5244 86.5078 36.0021 86.8872C36.4797 87.2665 37.0277 87.4562 37.6459 87.4562C38.4326 87.4562 38.9595 87.1682 39.2264 86.5921C39.4231 86.1988 39.5215 85.5665 39.5215 84.6955C39.5215 84.3723 39.5145 84.1054 39.5004 83.8946C39.0368 84.2037 38.5169 84.3583 37.9409 84.3583C36.8872 84.3583 36.0723 83.9789 35.4963 83.2202C34.9764 82.5318 34.7165 81.6537 34.7165 80.586C34.7165 80.4736 34.7868 78.7033 34.9273 75.2752C35.3488 75.0926 35.6859 75.0013 35.9388 75.0013C36.2198 75.0013 36.6343 75.1698 37.1822 75.507C36.845 76.35 36.6764 78.036 36.6764 80.5649C36.6764 82.1806 37.0839 82.9884 37.8988 82.9884C38.5029 82.9884 38.9665 82.4826 39.2897 81.4711C39.5285 80.7405 39.6479 79.9818 39.6479 79.195V76.624C39.6479 76.638 39.6269 76.4062 39.5847 75.9285C40.1607 75.6475 40.5892 75.507 40.8702 75.507C41.1653 75.507 41.5165 75.6405 41.924 75.9075ZM53.9482 77.7409C53.9201 78.0922 53.8288 78.7103 53.6742 79.5955C53.5337 80.3682 53.4635 80.9864 53.4635 81.45C53.4635 81.8715 53.4846 82.5037 53.5267 83.3467C53.5688 84.1897 53.5899 84.8219 53.5899 85.2434C53.5899 86.1145 53.5056 86.7607 53.337 87.1822C53.1403 87.7161 52.768 88.1446 52.2201 88.4678C51.6722 88.805 51.1032 88.9735 50.5131 88.9735C49.8949 88.9735 49.1292 88.805 48.216 88.4678C47.1201 88.0744 46.5722 87.6388 46.5722 87.1612C46.5722 86.543 46.8602 86.2339 47.4362 86.2339C47.7032 86.2339 47.8858 86.3112 47.9841 86.4657C48.1668 86.7467 48.2862 86.9153 48.3424 86.9715C48.4127 87.0277 48.6445 87.0909 49.0379 87.1612C49.4313 87.2454 49.7052 87.2876 49.8598 87.2876C51.1242 87.2876 51.7565 86.4938 51.7565 84.9062C51.7565 84.4426 51.7354 84.0492 51.6932 83.726C51.0891 84.2459 50.3655 84.5058 49.5226 84.5058C49.1713 84.5058 48.7779 84.4074 48.3424 84.2107C47.9069 84.014 47.5767 83.7822 47.3519 83.5153C46.9164 83.0095 46.6986 82.2579 46.6986 81.2603C46.6986 80.0661 46.9726 78.7525 47.5205 77.3194C48.1949 75.5632 49.0168 74.6851 49.9862 74.6851C50.5763 74.6851 51.1383 74.9591 51.6722 75.507C52.0655 76.0269 52.4589 76.5397 52.8523 77.0455C52.9647 77.186 53.1403 77.3124 53.3792 77.4248C53.6742 77.5653 53.8639 77.6707 53.9482 77.7409ZM51.8197 79.0054C51.8197 78.7946 51.7213 78.619 51.5246 78.4785C51.4403 77.186 50.9908 76.5397 50.1759 76.5397C49.7122 76.5397 49.3259 77.193 49.0168 78.4996C48.792 79.4971 48.6796 80.3612 48.6796 81.0917C48.6796 82.4686 49.0379 83.157 49.7544 83.157C50.4288 83.157 50.9627 82.6091 51.356 81.5132C51.6651 80.6703 51.8197 79.8343 51.8197 79.0054ZM62.5083 80.4174C62.5083 82.2298 62.4521 83.5083 62.3397 84.2529C62.2695 84.6884 61.9744 84.9062 61.4546 84.9062C60.6678 84.9062 60.3166 84.5128 60.4009 83.726C59.6984 84.0632 58.9678 84.2318 58.2092 84.2318C57.4786 84.2318 56.7831 84.0492 56.1228 83.6839C55.336 83.2483 54.9426 82.6934 54.9426 82.019C54.9426 81.3587 55.3922 80.7405 56.2914 80.1645C57.1063 79.6446 57.872 79.3847 58.5885 79.3847H60.3798V78.8789C60.3939 77.4037 59.9583 76.6661 59.0732 76.6661C57.9633 76.6661 57.4083 77.186 57.4083 78.2256C57.4083 78.5769 57.2116 78.7525 56.8182 78.7525C56.5794 78.7525 56.3265 78.6471 56.0596 78.4364C55.8067 78.2116 55.6802 77.9798 55.6802 77.7409C55.6802 76.9541 55.9612 76.3079 56.5232 75.8021C57.0852 75.2963 57.7596 75.0434 58.5463 75.0434C61.1877 75.0434 62.5083 76.8347 62.5083 80.4174ZM60.3798 81.176C60.3798 80.895 60.1691 80.7546 59.7476 80.7546C57.9914 80.7546 57.1133 81.169 57.1133 81.9979C57.1133 82.4475 57.4997 82.6723 58.2724 82.6723C58.7501 82.6723 59.1997 82.5388 59.6211 82.2719C60.1269 81.9769 60.3798 81.6116 60.3798 81.176ZM71.7027 83.8525C71.4919 84.1756 71.232 84.3372 70.9229 84.3372C70.6841 84.3372 70.2907 84.1967 69.7428 83.9157V83.6628C69.7428 83.3537 69.7498 82.8971 69.7638 82.293C69.7919 81.6888 69.806 81.2463 69.806 80.9653C69.806 77.9587 69.3564 76.4554 68.4572 76.4554C68.2043 76.4554 67.9163 76.6521 67.5932 77.0455C66.5956 78.2537 66.0969 79.7079 66.0969 81.4079C66.0969 81.6467 66.139 82.005 66.2233 82.4826C66.3217 82.9463 66.3709 83.2975 66.3709 83.5364C66.3709 83.7331 66.2795 83.8946 66.0969 84.0211C65.9142 84.1475 65.7176 84.2107 65.5068 84.2107C64.6638 84.2107 64.2423 83.6769 64.2423 82.6091V78.2046C64.2423 78.0922 64.2564 77.9306 64.2845 77.7198C64.3126 77.4951 64.3266 77.3265 64.3266 77.2141C64.3266 77.0455 64.2985 76.7996 64.2423 76.4765C64.2002 76.1533 64.1791 75.9145 64.1791 75.7599C64.1791 75.5351 64.3056 75.3244 64.5585 75.1277C64.8254 74.917 65.0642 74.8116 65.275 74.8116C65.5841 74.8116 65.9002 74.9872 66.2233 75.3384L66.1601 76.1814C66.6799 75.3525 67.3192 74.938 68.0779 74.938C68.5696 74.938 69.0894 75.1066 69.6374 75.4438C70.1853 75.781 70.5857 76.1603 70.8386 76.5818C71.4147 77.6496 71.7027 79.0546 71.7027 80.7967V83.8525ZM80.7179 80.4174C80.7179 82.2298 80.6617 83.5083 80.5493 84.2529C80.479 84.6884 80.184 84.9062 79.6642 84.9062C78.8774 84.9062 78.5261 84.5128 78.6104 83.726C77.908 84.0632 77.1774 84.2318 76.4187 84.2318C75.6881 84.2318 74.9927 84.0492 74.3324 83.6839C73.5456 83.2483 73.1522 82.6934 73.1522 82.019C73.1522 81.3587 73.6018 80.7405 74.5009 80.1645C75.3158 79.6446 76.0815 79.3847 76.798 79.3847H78.5894V78.8789C78.6034 77.4037 78.1679 76.6661 77.2828 76.6661C76.1728 76.6661 75.6179 77.186 75.6179 78.2256C75.6179 78.5769 75.4212 78.7525 75.0278 78.7525C74.789 78.7525 74.5361 78.6471 74.2691 78.4364C74.0162 78.2116 73.8898 77.9798 73.8898 77.7409C73.8898 76.9541 74.1708 76.3079 74.7328 75.8021C75.2947 75.2963 75.9691 75.0434 76.7559 75.0434C79.3972 75.0434 80.7179 76.8347 80.7179 80.4174ZM78.5894 81.176C78.5894 80.895 78.3786 80.7546 77.9571 80.7546C76.2009 80.7546 75.3228 81.169 75.3228 81.9979C75.3228 82.4475 75.7092 82.6723 76.4819 82.6723C76.9596 82.6723 77.4092 82.5388 77.8307 82.2719C78.3365 81.9769 78.5894 81.6116 78.5894 81.176ZM91.1141 76.7504C91.1141 76.8488 91.1001 77.0033 91.072 77.2141C90.7769 77.6355 90.4678 77.8463 90.1447 77.8463C89.8778 77.8463 89.6389 77.6917 89.4282 77.3827C89.4001 76.7504 89.1753 76.4343 88.7538 76.4343C88.5009 76.4343 88.1918 77.1017 87.8265 78.4364C87.6579 79.0265 87.5736 79.8484 87.5736 80.9021C87.5736 81.8996 87.6228 82.5037 87.7211 82.7145C87.8335 82.9814 87.8897 83.1641 87.8897 83.2624C87.8897 83.5012 87.7773 83.6979 87.5526 83.8525C87.3418 83.993 87.103 84.0632 86.836 84.0632C86.0773 84.0632 85.698 83.712 85.698 83.0095C85.698 82.9393 85.7121 82.8409 85.7402 82.7145C85.7823 82.588 85.8034 82.4967 85.8034 82.4405C85.8034 81.724 85.7683 80.6632 85.698 79.2583C85.6278 77.8393 85.5926 76.7785 85.5926 76.076C85.5926 75.4438 85.972 75.1277 86.7307 75.1277C87.1802 75.1277 87.4893 75.2612 87.6579 75.5281C88.0513 75.0926 88.4939 74.8748 88.9856 74.8748C89.3228 74.8748 89.6459 74.9661 89.955 75.1488C90.1658 75.2612 90.4116 75.507 90.6926 75.8864C90.9736 76.2517 91.1141 76.5397 91.1141 76.7504ZM98.5804 82.1455C98.5804 82.8479 98.1027 83.3959 97.1473 83.7893C96.4027 84.0983 95.6229 84.2529 94.8081 84.2529C92.6444 84.2529 91.5626 83.0236 91.5626 80.5649C91.5626 79.5533 91.8085 78.4293 92.3002 77.193C92.9043 75.6756 93.6349 74.917 94.4919 74.917C95.2647 74.917 96.0936 75.2612 96.9787 75.9496C97.8779 76.638 98.3275 77.3546 98.3275 78.0992C98.3275 79.0265 97.913 79.7641 97.0841 80.312C96.3535 80.8037 95.4824 81.0496 94.4709 81.0496C94.2742 81.0496 93.9581 80.9302 93.5225 80.6913C93.5787 82.026 93.9721 82.6934 94.7027 82.6934C95.3209 82.6934 95.925 82.5178 96.5151 82.1665C97.1192 81.8153 97.5056 81.6397 97.6742 81.6397C98.2783 81.6397 98.5804 81.8083 98.5804 82.1455ZM96.2833 78.1624C96.2833 77.8112 96.1779 77.481 95.9671 77.1719C95.7705 76.8488 95.5035 76.6872 95.1663 76.6872C94.7027 76.6872 94.3444 76.8909 94.0915 77.2984C93.8808 77.6496 93.7754 78.0641 93.7754 78.5417C93.7754 78.8087 93.8667 79.0265 94.0494 79.195C94.232 79.3636 94.4638 79.4479 94.7448 79.4479C95.7705 79.4479 96.2833 79.0194 96.2833 78.1624ZM107.025 81.6186C107.025 82.0541 106.694 82.5669 106.034 83.157C105.444 83.705 104.91 84.0492 104.432 84.1897C103.969 84.3302 103.526 84.4004 103.105 84.4004C101.995 84.4004 101.124 84.0492 100.492 83.3467C99.8734 82.6442 99.5643 81.738 99.5643 80.6281C99.5643 79.5463 99.8523 78.338 100.428 77.0033C101.117 75.4017 101.918 74.6008 102.831 74.6008C103.337 74.6008 103.948 74.7975 104.664 75.1909C105.423 75.6265 105.865 76.062 105.992 76.4975C106.104 76.8769 106.161 77.3054 106.161 77.7831C106.161 78.2186 106.069 78.7103 105.887 79.2583C105.662 79.9608 105.381 80.312 105.044 80.312C104.805 80.312 104.58 80.2417 104.369 80.1012C104.116 79.9467 103.99 79.757 103.99 79.5322C103.99 79.5182 104.053 79.3566 104.18 79.0475C104.25 78.907 104.285 78.5207 104.285 77.8884C104.285 77.3686 104.264 77.0314 104.222 76.8769C104.137 76.4413 103.941 76.2236 103.632 76.2236C102.943 76.2236 102.409 76.8207 102.03 78.0149C101.749 78.9 101.608 79.7922 101.608 80.6913C101.608 82.1946 102.086 82.9463 103.042 82.9463C103.421 82.9463 103.856 82.7496 104.348 82.3562C104.798 81.9909 105.114 81.6186 105.296 81.2393C105.521 80.7897 105.795 80.5649 106.118 80.5649C106.329 80.5649 106.533 80.6913 106.73 80.9442C106.926 81.1831 107.025 81.4079 107.025 81.6186ZM115.639 79.8484C115.639 81.1128 115.323 82.1946 114.691 83.0938C113.96 84.1194 112.991 84.6322 111.783 84.6322C110.546 84.6322 109.612 84.2107 108.98 83.3678C108.404 82.6231 108.116 81.6116 108.116 80.3331C108.116 79.0686 108.432 77.8744 109.064 76.7504C109.795 75.4157 110.743 74.7484 111.909 74.7484C112.275 74.7484 112.731 74.9099 113.279 75.2331C114.853 76.1744 115.639 77.7128 115.639 79.8484ZM113.785 79.8062C113.785 77.6566 113.265 76.5818 112.225 76.5818C111.481 76.5818 110.919 77.0384 110.539 77.9517C110.258 78.6401 110.118 79.4198 110.118 80.2909C110.118 82.1595 110.673 83.0938 111.783 83.0938C112.499 83.0938 113.033 82.7074 113.384 81.9347C113.651 81.3446 113.785 80.6351 113.785 79.8062ZM127.48 83.9579C127.002 84.2529 126.637 84.4004 126.384 84.4004C126.201 84.4004 125.92 84.3021 125.541 84.1054C125.541 83.8806 125.548 83.4942 125.562 82.9463C125.576 82.4545 125.583 82.0682 125.583 81.7872C125.583 78.05 125.274 76.1814 124.656 76.1814C124.192 76.1814 123.82 76.7504 123.539 77.8884C123.328 78.7174 123.223 79.4831 123.223 80.1855V82.1244C123.223 82.2227 123.251 82.3703 123.307 82.5669C123.377 82.7496 123.413 82.8901 123.413 82.9884C123.413 83.2132 123.293 83.4169 123.054 83.5996C122.815 83.7682 122.584 83.8525 122.359 83.8525C122.12 83.8525 121.881 83.7331 121.642 83.4942C121.403 83.2554 121.284 83.0236 121.284 82.7988V78.8789C121.284 77.2913 121.108 76.4975 120.757 76.4975C120.701 76.4975 120.582 76.631 120.399 76.8979C119.401 78.2467 118.903 79.6938 118.903 81.2393C118.903 81.4641 118.931 81.7942 118.987 82.2298C119.043 82.6512 119.071 82.9674 119.071 83.1781C119.071 83.4591 118.98 83.6909 118.797 83.8736C118.629 84.0562 118.404 84.1475 118.123 84.1475C117.8 84.1475 117.54 84.0351 117.343 83.8103C117.273 83.712 117.189 83.3818 117.09 82.8198C117.006 82.3 116.964 81.9417 116.964 81.745V77.1508C116.964 76.8136 117.048 76.3641 117.217 75.8021C117.427 75.1277 117.652 74.7905 117.891 74.7905C118.172 74.7905 118.425 74.9029 118.65 75.1277C118.875 75.3384 118.973 75.5843 118.945 75.8653C119.352 75.1909 119.879 74.8537 120.525 74.8537C121.326 74.8537 121.979 75.3876 122.485 76.4554C122.752 75.8232 122.991 75.3876 123.202 75.1488C123.553 74.7413 123.989 74.5376 124.508 74.5376C125.028 74.5376 125.555 74.8116 126.089 75.3595C127.016 76.3008 127.48 77.9095 127.48 80.1855V83.9579ZM136.527 78.9843C136.527 80.4174 136.274 81.6326 135.768 82.6302C135.136 83.9227 134.18 84.569 132.902 84.569C132.213 84.569 131.623 84.3723 131.132 83.9789C131.132 84.1335 131.132 84.3442 131.132 84.6112C131.132 84.9202 131.132 85.131 131.132 85.2434C131.132 86.5921 131.286 87.6529 131.595 88.4256C131.736 88.7347 131.806 88.9314 131.806 89.0157C131.806 89.4934 131.525 89.7322 130.963 89.7322C130.542 89.7322 130.225 89.6549 130.015 89.5004C129.86 89.4021 129.706 89.0508 129.551 88.4467C129.425 87.9128 129.361 87.5054 129.361 87.2244V82.1455C129.361 81.6818 129.39 81.0496 129.446 80.2488C129.502 79.3496 129.537 78.7244 129.551 78.3731C129.565 78.0219 129.565 77.5583 129.551 76.9822C129.537 76.2517 129.53 75.781 129.53 75.5703C129.53 74.376 129.923 73.7789 130.71 73.7789C130.907 73.7789 131.09 73.8492 131.258 73.9897C131.427 74.1161 131.511 74.2707 131.511 74.4533C131.511 74.7624 131.476 75.3244 131.406 76.1393C131.954 75.3665 132.614 74.9802 133.387 74.9802C134.426 74.9802 135.227 75.4017 135.789 76.2446C136.281 76.9752 136.527 77.8884 136.527 78.9843ZM134.651 78.7946C134.651 77.2773 134.328 76.5186 133.682 76.5186C133.401 76.5186 133.035 76.7926 132.586 77.3405C131.715 78.3942 131.237 79.8484 131.153 81.7029C131.307 81.7872 131.581 82.0822 131.975 82.588C132.284 82.9674 132.593 83.157 132.902 83.157C134.068 83.157 134.651 81.7029 134.651 78.7946ZM144.746 82.1455C144.746 82.8479 144.269 83.3959 143.313 83.7893C142.569 84.0983 141.789 84.2529 140.974 84.2529C138.81 84.2529 137.729 83.0236 137.729 80.5649C137.729 79.5533 137.974 78.4293 138.466 77.193C139.07 75.6756 139.801 74.917 140.658 74.917C141.431 74.917 142.26 75.2612 143.145 75.9496C144.044 76.638 144.493 77.3546 144.493 78.0992C144.493 79.0265 144.079 79.7641 143.25 80.312C142.52 80.8037 141.648 81.0496 140.637 81.0496C140.44 81.0496 140.124 80.9302 139.689 80.6913C139.745 82.026 140.138 82.6934 140.869 82.6934C141.487 82.6934 142.091 82.5178 142.681 82.1665C143.285 81.8153 143.672 81.6397 143.84 81.6397C144.444 81.6397 144.746 81.8083 144.746 82.1455ZM142.449 78.1624C142.449 77.8112 142.344 77.481 142.133 77.1719C141.936 76.8488 141.67 76.6872 141.332 76.6872C140.869 76.6872 140.51 76.8909 140.258 77.2984C140.047 77.6496 139.941 78.0641 139.941 78.5417C139.941 78.8087 140.033 79.0265 140.215 79.195C140.398 79.3636 140.63 79.4479 140.911 79.4479C141.936 79.4479 142.449 79.0194 142.449 78.1624ZM153.465 83.8525C153.254 84.1756 152.994 84.3372 152.685 84.3372C152.446 84.3372 152.053 84.1967 151.505 83.9157V83.6628C151.505 83.3537 151.512 82.8971 151.526 82.293C151.554 81.6888 151.568 81.2463 151.568 80.9653C151.568 77.9587 151.118 76.4554 150.219 76.4554C149.966 76.4554 149.678 76.6521 149.355 77.0455C148.358 78.2537 147.859 79.7079 147.859 81.4079C147.859 81.6467 147.901 82.005 147.985 82.4826C148.084 82.9463 148.133 83.2975 148.133 83.5364C148.133 83.7331 148.041 83.8946 147.859 84.0211C147.676 84.1475 147.479 84.2107 147.269 84.2107C146.426 84.2107 146.004 83.6769 146.004 82.6091V78.2046C146.004 78.0922 146.018 77.9306 146.046 77.7198C146.074 77.4951 146.089 77.3265 146.089 77.2141C146.089 77.0455 146.06 76.7996 146.004 76.4765C145.962 76.1533 145.941 75.9145 145.941 75.7599C145.941 75.5351 146.067 75.3244 146.32 75.1277C146.587 74.917 146.826 74.8116 147.037 74.8116C147.346 74.8116 147.662 74.9872 147.985 75.3384L147.922 76.1814C148.442 75.3525 149.081 74.938 149.84 74.938C150.331 74.938 150.851 75.1066 151.399 75.4438C151.947 75.781 152.348 76.1603 152.6 76.5818C153.177 77.6496 153.465 79.0546 153.465 80.7967V83.8525ZM162.016 81.8715C162.016 82.5318 161.735 83.1079 161.173 83.5996C160.555 84.1335 159.726 84.4004 158.686 84.4004C158.237 84.4145 157.752 84.3231 157.232 84.1264C155.546 83.4942 154.703 82.9814 154.703 82.588C154.703 81.9698 155.146 81.6607 156.031 81.6607C156.157 81.6607 156.291 81.6678 156.431 81.6818C156.474 82.1033 156.811 82.4405 157.443 82.6934C157.991 82.9182 158.518 83.0095 159.024 82.9674C159.431 82.9393 159.635 82.7917 159.635 82.5248C159.635 82.4826 159.621 82.4194 159.593 82.3351C159.579 82.2508 159.571 82.1876 159.571 82.1455C159.571 82.0893 159.305 81.9769 158.771 81.8083C158.167 81.6256 157.829 81.5203 157.759 81.4922C156.157 80.5368 155.357 79.3847 155.357 78.036C155.357 77.2211 155.588 76.4694 156.052 75.781C156.572 75.0223 157.218 74.643 157.991 74.643C158.567 74.643 159.22 74.8678 159.951 75.3174C160.695 75.767 161.152 76.2517 161.321 76.7715C161.433 77.1368 161.489 77.4389 161.489 77.6777C161.489 77.9306 161.454 78.1413 161.384 78.3099C161.3 78.5207 161.215 78.7314 161.131 78.9422C160.864 79.1248 160.597 79.2161 160.33 79.2161C160.19 79.2161 159.951 79.1318 159.614 78.9632C159.291 78.7806 159.129 78.626 159.129 78.4996C159.129 78.4434 159.213 78.2608 159.382 77.9517C159.48 77.769 159.529 77.6145 159.529 77.488C159.529 76.6451 159.199 76.2236 158.539 76.2236C158.145 76.2236 157.843 76.4765 157.633 76.9822C157.478 77.3756 157.401 77.7971 157.401 78.2467C157.401 78.8087 157.801 79.3145 158.602 79.7641C159.333 80.0872 160.07 80.4174 160.815 80.7546C161.616 81.1198 162.016 81.4922 162.016 81.8715ZM170.613 80.4174C170.613 82.2298 170.557 83.5083 170.445 84.2529C170.374 84.6884 170.079 84.9062 169.559 84.9062C168.773 84.9062 168.421 84.5128 168.506 83.726C167.803 84.0632 167.073 84.2318 166.314 84.2318C165.583 84.2318 164.888 84.0492 164.228 83.6839C163.441 83.2483 163.047 82.6934 163.047 82.019C163.047 81.3587 163.497 80.7405 164.396 80.1645C165.211 79.6446 165.977 79.3847 166.693 79.3847H168.485V78.8789C168.499 77.4037 168.063 76.6661 167.178 76.6661C166.068 76.6661 165.513 77.186 165.513 78.2256C165.513 78.5769 165.316 78.7525 164.923 78.7525C164.684 78.7525 164.431 78.6471 164.164 78.4364C163.911 78.2116 163.785 77.9798 163.785 77.7409C163.785 76.9541 164.066 76.3079 164.628 75.8021C165.19 75.2963 165.864 75.0434 166.651 75.0434C169.292 75.0434 170.613 76.8347 170.613 80.4174ZM168.485 81.176C168.485 80.895 168.274 80.7546 167.852 80.7546C166.096 80.7546 165.218 81.169 165.218 81.9979C165.218 82.4475 165.604 82.6723 166.377 82.6723C166.855 82.6723 167.304 82.5388 167.726 82.2719C168.232 81.9769 168.485 81.6116 168.485 81.176ZM179.172 81.8715C179.172 82.5318 178.891 83.1079 178.329 83.5996C177.711 84.1335 176.882 84.4004 175.842 84.4004C175.393 84.4145 174.908 84.3231 174.388 84.1264C172.702 83.4942 171.859 82.9814 171.859 82.588C171.859 81.9698 172.302 81.6607 173.187 81.6607C173.313 81.6607 173.447 81.6678 173.587 81.6818C173.629 82.1033 173.967 82.4405 174.599 82.6934C175.147 82.9182 175.674 83.0095 176.179 82.9674C176.587 82.9393 176.791 82.7917 176.791 82.5248C176.791 82.4826 176.777 82.4194 176.748 82.3351C176.734 82.2508 176.727 82.1876 176.727 82.1455C176.727 82.0893 176.46 81.9769 175.927 81.8083C175.322 81.6256 174.985 81.5203 174.915 81.4922C173.313 80.5368 172.512 79.3847 172.512 78.036C172.512 77.2211 172.744 76.4694 173.208 75.781C173.728 75.0223 174.374 74.643 175.147 74.643C175.723 74.643 176.376 74.8678 177.107 75.3174C177.851 75.767 178.308 76.2517 178.477 76.7715C178.589 77.1368 178.645 77.4389 178.645 77.6777C178.645 77.9306 178.61 78.1413 178.54 78.3099C178.455 78.5207 178.371 78.7314 178.287 78.9422C178.02 79.1248 177.753 79.2161 177.486 79.2161C177.346 79.2161 177.107 79.1318 176.769 78.9632C176.446 78.7806 176.285 78.626 176.285 78.4996C176.285 78.4434 176.369 78.2608 176.538 77.9517C176.636 77.769 176.685 77.6145 176.685 77.488C176.685 76.6451 176.355 76.2236 175.695 76.2236C175.301 76.2236 174.999 76.4765 174.788 76.9822C174.634 77.3756 174.557 77.7971 174.557 78.2467C174.557 78.8087 174.957 79.3145 175.758 79.7641C176.488 80.0872 177.226 80.4174 177.971 80.7546C178.772 81.1198 179.172 81.4922 179.172 81.8715ZM191.057 78.9843C191.057 80.4174 190.804 81.6326 190.298 82.6302C189.666 83.9227 188.71 84.569 187.432 84.569C186.743 84.569 186.153 84.3723 185.662 83.9789C185.662 84.1335 185.662 84.3442 185.662 84.6112C185.662 84.9202 185.662 85.131 185.662 85.2434C185.662 86.5921 185.816 87.6529 186.125 88.4256C186.266 88.7347 186.336 88.9314 186.336 89.0157C186.336 89.4934 186.055 89.7322 185.493 89.7322C185.071 89.7322 184.755 89.6549 184.545 89.5004C184.39 89.4021 184.236 89.0508 184.081 88.4467C183.955 87.9128 183.891 87.5054 183.891 87.2244V82.1455C183.891 81.6818 183.919 81.0496 183.976 80.2488C184.032 79.3496 184.067 78.7244 184.081 78.3731C184.095 78.0219 184.095 77.5583 184.081 76.9822C184.067 76.2517 184.06 75.781 184.06 75.5703C184.06 74.376 184.453 73.7789 185.24 73.7789C185.437 73.7789 185.619 73.8492 185.788 73.9897C185.957 74.1161 186.041 74.2707 186.041 74.4533C186.041 74.7624 186.006 75.3244 185.936 76.1393C186.483 75.3665 187.144 74.9802 187.916 74.9802C188.956 74.9802 189.757 75.4017 190.319 76.2446C190.811 76.9752 191.057 77.8884 191.057 78.9843ZM189.181 78.7946C189.181 77.2773 188.858 76.5186 188.212 76.5186C187.931 76.5186 187.565 76.7926 187.116 77.3405C186.245 78.3942 185.767 79.8484 185.683 81.7029C185.837 81.7872 186.111 82.0822 186.505 82.588C186.814 82.9674 187.123 83.157 187.432 83.157C188.598 83.157 189.181 81.7029 189.181 78.7946ZM199.557 80.4174C199.557 82.2298 199.501 83.5083 199.389 84.2529C199.319 84.6884 199.024 84.9062 198.504 84.9062C197.717 84.9062 197.366 84.5128 197.45 83.726C196.748 84.0632 196.017 84.2318 195.258 84.2318C194.528 84.2318 193.832 84.0492 193.172 83.6839C192.385 83.2483 191.992 82.6934 191.992 82.019C191.992 81.3587 192.441 80.7405 193.341 80.1645C194.155 79.6446 194.921 79.3847 195.638 79.3847H197.429V78.8789C197.443 77.4037 197.007 76.6661 196.122 76.6661C195.012 76.6661 194.457 77.186 194.457 78.2256C194.457 78.5769 194.261 78.7525 193.867 78.7525C193.629 78.7525 193.376 78.6471 193.109 78.4364C192.856 78.2116 192.729 77.9798 192.729 77.7409C192.729 76.9541 193.01 76.3079 193.572 75.8021C194.134 75.2963 194.809 75.0434 195.595 75.0434C198.237 75.0434 199.557 76.8347 199.557 80.4174ZM197.429 81.176C197.429 80.895 197.218 80.7546 196.797 80.7546C195.041 80.7546 194.162 81.169 194.162 81.9979C194.162 82.4475 194.549 82.6723 195.321 82.6723C195.799 82.6723 196.249 82.5388 196.67 82.2719C197.176 81.9769 197.429 81.6116 197.429 81.176ZM206.743 76.7504C206.743 76.8488 206.729 77.0033 206.701 77.2141C206.406 77.6355 206.097 77.8463 205.774 77.8463C205.507 77.8463 205.268 77.6917 205.057 77.3827C205.029 76.7504 204.804 76.4343 204.383 76.4343C204.13 76.4343 203.821 77.1017 203.456 78.4364C203.287 79.0265 203.203 79.8484 203.203 80.9021C203.203 81.8996 203.252 82.5037 203.35 82.7145C203.463 82.9814 203.519 83.1641 203.519 83.2624C203.519 83.5012 203.406 83.6979 203.182 83.8525C202.971 83.993 202.732 84.0632 202.465 84.0632C201.706 84.0632 201.327 83.712 201.327 83.0095C201.327 82.9393 201.341 82.8409 201.369 82.7145C201.411 82.588 201.432 82.4967 201.432 82.4405C201.432 81.724 201.397 80.6632 201.327 79.2583C201.257 77.8393 201.222 76.7785 201.222 76.076C201.222 75.4438 201.601 75.1277 202.36 75.1277C202.809 75.1277 203.118 75.2612 203.287 75.5281C203.68 75.0926 204.123 74.8748 204.615 74.8748C204.952 74.8748 205.275 74.9661 205.584 75.1488C205.795 75.2612 206.041 75.507 206.322 75.8864C206.603 76.2517 206.743 76.5397 206.743 76.7504ZM214.507 80.4174C214.507 82.2298 214.451 83.5083 214.338 84.2529C214.268 84.6884 213.973 84.9062 213.453 84.9062C212.667 84.9062 212.315 84.5128 212.4 83.726C211.697 84.0632 210.967 84.2318 210.208 84.2318C209.477 84.2318 208.782 84.0492 208.122 83.6839C207.335 83.2483 206.941 82.6934 206.941 82.019C206.941 81.3587 207.391 80.7405 208.29 80.1645C209.105 79.6446 209.871 79.3847 210.587 79.3847H212.379V78.8789C212.393 77.4037 211.957 76.6661 211.072 76.6661C209.962 76.6661 209.407 77.186 209.407 78.2256C209.407 78.5769 209.21 78.7525 208.817 78.7525C208.578 78.7525 208.325 78.6471 208.058 78.4364C207.805 78.2116 207.679 77.9798 207.679 77.7409C207.679 76.9541 207.96 76.3079 208.522 75.8021C209.084 75.2963 209.758 75.0434 210.545 75.0434C213.186 75.0434 214.507 76.8347 214.507 80.4174ZM212.379 81.176C212.379 80.895 212.168 80.7546 211.746 80.7546C209.99 80.7546 209.112 81.169 209.112 81.9979C209.112 82.4475 209.498 82.6723 210.271 82.6723C210.749 82.6723 211.198 82.5388 211.62 82.2719C212.126 81.9769 212.379 81.6116 212.379 81.176ZM224.629 76.4554C224.629 76.8347 224.046 77.1017 222.88 77.2562C222.852 77.5653 222.838 78.2678 222.838 79.3636V80.7546C222.838 81.0355 222.88 81.45 222.964 81.9979C223.063 82.5459 223.112 82.9533 223.112 83.2202C223.112 83.445 223 83.6488 222.775 83.8314C222.55 84 222.325 84.0843 222.1 84.0843C221.749 84.0843 221.454 83.7822 221.215 83.1781C221.033 82.7145 220.941 82.2649 220.941 81.8293V77.3616C220.295 77.2632 219.923 77.2 219.824 77.1719C219.459 77.0595 219.276 76.8979 219.276 76.6872C219.276 76.631 219.29 76.5678 219.319 76.4975C219.684 75.9777 220.091 75.7178 220.541 75.7178C220.569 75.7178 220.611 75.7178 220.667 75.7178C220.724 75.7318 220.766 75.7389 220.794 75.7389C221.089 75.7389 221.229 75.3946 221.215 74.7062V73.1678C221.131 73.0132 221.089 72.8798 221.089 72.7674C221.089 72.5847 221.194 72.4232 221.405 72.2827C221.63 72.1281 221.84 72.0508 222.037 72.0508C222.332 72.0508 222.613 72.1913 222.88 72.4723C223.147 72.7393 223.281 73.0273 223.281 73.3364C223.281 73.6736 223.224 74.0108 223.112 74.3479C223.014 74.6711 222.971 75.0083 222.986 75.3595V75.4438C224.081 75.5562 224.629 75.8934 224.629 76.4554ZM232.298 76.4765C232.298 76.912 232.242 77.5723 232.129 78.4574C232.031 79.3285 231.982 79.9888 231.982 80.4384C231.982 80.8318 231.996 81.4219 232.024 82.2087C232.066 82.9814 232.087 83.5574 232.087 83.9368C232.087 84.2599 231.813 84.4215 231.265 84.4215C230.703 84.4215 230.345 84.1475 230.19 83.5996C229.656 83.9508 229.137 84.1264 228.631 84.1264C228.223 84.1264 227.76 84.0211 227.24 83.8103C226.72 83.5855 226.355 83.3186 226.144 83.0095C225.737 82.4194 225.533 81.4711 225.533 80.1645C225.533 79.7149 225.547 78.9281 225.575 77.8041C225.617 76.8066 225.631 76.0269 225.617 75.4649C226.039 75.1558 226.39 75.0013 226.671 75.0013C227.345 75.0013 227.682 75.3314 227.682 75.9917C227.682 76.2165 227.647 76.5537 227.577 77.0033C227.521 77.4529 227.493 77.7901 227.493 78.0149V80.9864C227.493 81.3236 227.584 81.6748 227.767 82.0401C227.992 82.4616 228.258 82.6723 228.568 82.6723C229.172 82.6723 229.621 82.286 229.916 81.5132C230.113 80.9793 230.211 80.3331 230.211 79.5744V77.0455C230.211 76.7223 230.127 76.3219 229.958 75.8442C230.31 75.5211 230.647 75.3595 230.97 75.3595C231.307 75.3595 231.609 75.4649 231.876 75.6756C232.157 75.8864 232.298 76.1533 232.298 76.4765ZM42.0925 106.417C42.0925 108.23 42.0364 109.508 41.924 110.253C41.8537 110.688 41.5587 110.906 41.0388 110.906C40.2521 110.906 39.9008 110.513 39.9851 109.726C39.2826 110.063 38.5521 110.232 37.7934 110.232C37.0628 110.232 36.3674 110.049 35.707 109.684C34.9202 109.248 34.5269 108.693 34.5269 108.019C34.5269 107.359 34.9764 106.741 35.8756 106.164C36.6905 105.645 37.4562 105.385 38.1727 105.385H39.964V104.879C39.9781 103.404 39.5426 102.666 38.6574 102.666C37.5475 102.666 36.9926 103.186 36.9926 104.226C36.9926 104.577 36.7959 104.752 36.4025 104.752C36.1636 104.752 35.9107 104.647 35.6438 104.436C35.3909 104.212 35.2645 103.98 35.2645 103.741C35.2645 102.954 35.5455 102.308 36.1074 101.802C36.6694 101.296 37.3438 101.043 38.1306 101.043C40.7719 101.043 42.0925 102.835 42.0925 106.417ZM39.964 107.176C39.964 106.895 39.7533 106.755 39.3318 106.755C37.5756 106.755 36.6975 107.169 36.6975 107.998C36.6975 108.448 37.0839 108.672 37.8566 108.672C38.3343 108.672 38.7839 108.539 39.2054 108.272C39.7111 107.977 39.964 107.612 39.964 107.176ZM50.4024 101.929C50.4024 102.94 50.0793 104.486 49.433 106.565C48.6743 108.953 47.9367 110.148 47.2202 110.148C46.1946 110.148 45.2814 109.143 44.4805 107.134C43.9888 105.883 43.5884 104.422 43.2793 102.75C43.2091 102.343 43.1739 102.027 43.1739 101.802C43.1739 101.577 43.2723 101.381 43.469 101.212C43.6797 101.029 43.8975 100.938 44.1223 100.938C44.3892 100.938 44.8037 101.142 45.3657 101.549C45.2673 101.872 45.2181 102.146 45.2181 102.371C45.2181 103.13 45.4008 104.12 45.7661 105.343C46.1454 106.565 46.5528 107.485 46.9884 108.103V108.167C47.4942 108.167 47.8876 107.211 48.1685 105.3C48.3652 103.994 48.4636 102.8 48.4636 101.718C48.4636 101.507 48.569 101.324 48.7797 101.17C49.0045 101.015 49.2223 100.938 49.433 100.938C50.0793 100.938 50.4024 101.268 50.4024 101.929ZM58.1947 106.417C58.1947 108.23 58.1385 109.508 58.0261 110.253C57.9558 110.688 57.6608 110.906 57.141 110.906C56.3542 110.906 56.0029 110.513 56.0872 109.726C55.3848 110.063 54.6542 110.232 53.8955 110.232C53.1649 110.232 52.4695 110.049 51.8091 109.684C51.0224 109.248 50.629 108.693 50.629 108.019C50.629 107.359 51.0786 106.741 51.9777 106.164C52.7926 105.645 53.5583 105.385 54.2748 105.385H56.0662V104.879C56.0802 103.404 55.6447 102.666 54.7596 102.666C53.6496 102.666 53.0947 103.186 53.0947 104.226C53.0947 104.577 52.898 104.752 52.5046 104.752C52.2658 104.752 52.0129 104.647 51.7459 104.436C51.493 104.212 51.3666 103.98 51.3666 103.741C51.3666 102.954 51.6476 102.308 52.2096 101.802C52.7715 101.296 53.4459 101.043 54.2327 101.043C56.874 101.043 58.1947 102.835 58.1947 106.417ZM56.0662 107.176C56.0662 106.895 55.8554 106.755 55.4339 106.755C53.6777 106.755 52.7996 107.169 52.7996 107.998C52.7996 108.448 53.186 108.672 53.9587 108.672C54.4364 108.672 54.886 108.539 55.3075 108.272C55.8133 107.977 56.0662 107.612 56.0662 107.176ZM64.135 102.455C64.135 102.835 63.5519 103.102 62.3858 103.256C62.3577 103.565 62.3437 104.268 62.3437 105.364V106.755C62.3437 107.036 62.3858 107.45 62.4701 107.998C62.5685 108.546 62.6176 108.953 62.6176 109.22C62.6176 109.445 62.5053 109.649 62.2805 109.831C62.0557 110 61.8309 110.084 61.6061 110.084C61.2548 110.084 60.9598 109.782 60.721 109.178C60.5383 108.714 60.447 108.265 60.447 107.829V103.362C59.8007 103.263 59.4284 103.2 59.33 103.172C58.9648 103.06 58.7821 102.898 58.7821 102.687C58.7821 102.631 58.7962 102.568 58.8243 102.498C59.1896 101.978 59.597 101.718 60.0466 101.718C60.0747 101.718 60.1168 101.718 60.173 101.718C60.2292 101.732 60.2714 101.739 60.2995 101.739C60.5945 101.739 60.735 101.395 60.721 100.706V99.1678C60.6367 99.0132 60.5945 98.8798 60.5945 98.7674C60.5945 98.5847 60.6999 98.4232 60.9106 98.2827C61.1354 98.1281 61.3462 98.0508 61.5429 98.0508C61.8379 98.0508 62.1189 98.1913 62.3858 98.4723C62.6528 98.7393 62.7862 99.0273 62.7862 99.3364C62.7862 99.6736 62.73 100.011 62.6176 100.348C62.5193 100.671 62.4772 101.008 62.4912 101.36V101.444C63.5871 101.556 64.135 101.893 64.135 102.455ZM71.679 106.417C71.679 108.23 71.6228 109.508 71.5104 110.253C71.4401 110.688 71.1451 110.906 70.6252 110.906C69.8385 110.906 69.4872 110.513 69.5715 109.726C68.869 110.063 68.1385 110.232 67.3798 110.232C66.6492 110.232 65.9538 110.049 65.2934 109.684C64.5067 109.248 64.1133 108.693 64.1133 108.019C64.1133 107.359 64.5629 106.741 65.462 106.164C66.2769 105.645 67.0426 105.385 67.7591 105.385H69.5504V104.879C69.5645 103.404 69.129 102.666 68.2438 102.666C67.1339 102.666 66.579 103.186 66.579 104.226C66.579 104.577 66.3823 104.752 65.9889 104.752C65.75 104.752 65.4971 104.647 65.2302 104.436C64.9773 104.212 64.8509 103.98 64.8509 103.741C64.8509 102.954 65.1319 102.308 65.6938 101.802C66.2558 101.296 66.9302 101.043 67.717 101.043C70.3583 101.043 71.679 102.835 71.679 106.417ZM69.5504 107.176C69.5504 106.895 69.3397 106.755 68.9182 106.755C67.162 106.755 66.2839 107.169 66.2839 107.998C66.2839 108.448 66.6703 108.672 67.443 108.672C67.9207 108.672 68.3703 108.539 68.7918 108.272C69.2976 107.977 69.5504 107.612 69.5504 107.176ZM78.8647 102.75C78.8647 102.849 78.8506 103.003 78.8225 103.214C78.5275 103.636 78.2184 103.846 77.8952 103.846C77.6283 103.846 77.3894 103.692 77.1787 103.383C77.1506 102.75 76.9258 102.434 76.5043 102.434C76.2514 102.434 75.9423 103.102 75.5771 104.436C75.4085 105.026 75.3242 105.848 75.3242 106.902C75.3242 107.9 75.3733 108.504 75.4717 108.714C75.5841 108.981 75.6403 109.164 75.6403 109.262C75.6403 109.501 75.5279 109.698 75.3031 109.852C75.0923 109.993 74.8535 110.063 74.5866 110.063C73.8279 110.063 73.4485 109.712 73.4485 109.01C73.4485 108.939 73.4626 108.841 73.4907 108.714C73.5328 108.588 73.5539 108.497 73.5539 108.44C73.5539 107.724 73.5188 106.663 73.4485 105.258C73.3783 103.839 73.3432 102.779 73.3432 102.076C73.3432 101.444 73.7225 101.128 74.4812 101.128C74.9308 101.128 75.2399 101.261 75.4085 101.528C75.8018 101.093 76.2444 100.875 76.7361 100.875C77.0733 100.875 77.3965 100.966 77.7056 101.149C77.9163 101.261 78.1622 101.507 78.4432 101.886C78.7242 102.252 78.8647 102.54 78.8647 102.75ZM84.5613 96.6389C84.5613 96.7372 84.5262 96.8426 84.4559 96.955C84.3576 97.1095 84.2944 97.2079 84.2663 97.25C83.9431 98.0508 83.7043 99.0694 83.5497 100.306C83.4795 100.741 83.3741 101.795 83.2336 103.467C83.2336 103.537 83.2126 103.678 83.1704 103.888C83.1423 104.085 83.1283 104.24 83.1283 104.352C83.1283 104.717 83.2055 105.202 83.3601 105.806C83.2758 105.919 83.1353 106.073 82.9386 106.27C82.784 106.312 82.6154 106.333 82.4328 106.333C82.1518 106.333 81.8919 106.263 81.6531 106.122C81.4423 105.729 81.3369 105.223 81.3369 104.605C81.3369 103.959 81.4634 103.003 81.7163 101.739C81.9832 100.46 82.1167 99.498 82.1167 98.8517C82.1167 98.5988 82.0675 98.2194 81.9692 97.7137C81.8849 97.1938 81.8427 96.8075 81.8427 96.5546C81.8427 96.4141 81.8568 96.2946 81.8849 96.1963C82.2361 95.9013 82.6646 95.7537 83.1704 95.7537C83.4654 95.7537 83.7605 95.824 84.0555 95.9645C84.3927 96.1471 84.5613 96.3719 84.5613 96.6389ZM83.9502 108.63C83.9502 109.698 83.339 110.232 82.1167 110.232C81.8919 110.232 81.4634 110.098 80.8312 109.831C80.6626 109.522 80.5783 109.227 80.5783 108.946C80.5783 108.131 81.077 107.724 82.0745 107.724C82.4398 107.724 82.8121 107.794 83.1915 107.935C83.6973 108.117 83.9502 108.349 83.9502 108.63Z" fill="#2E97CE"/>
<path d="M178.926 149.737C179.578 150.249 179.691 151.192 179.18 151.843L170.846 162.464C170.334 163.115 169.391 163.229 168.74 162.718C168.088 162.206 167.974 161.263 168.486 160.612L175.894 151.171L166.454 143.763C165.802 143.252 165.688 142.309 166.2 141.657C166.711 141.005 167.654 140.892 168.306 141.403L178.926 149.737ZM104.5 121C104.5 127.317 109.825 135.939 121.884 142.286C133.865 148.593 152.293 152.507 177.82 149.428L178.18 152.407C152.2 155.54 133.128 151.595 120.486 144.941C107.922 138.327 101.5 128.885 101.5 121L104.5 121Z" fill="#46A5DD"/>
<path d="M304.762 104.241C290.098 78.8417 298.8 46.3641 324.199 31.6999C349.598 17.0358 382.076 25.7381 396.74 51.1372L425.092 100.244C429.069 107.132 426.709 115.94 419.821 119.916L352.786 158.619C345.898 162.596 337.09 160.236 333.114 153.348L304.762 104.241Z" fill="#46A5DD"/>
<path d="M351.433 159.4L419.821 119.916C426.709 115.94 429.069 107.132 425.092 100.244L398.99 55.0346C398.99 55.0346 405.095 78.0561 390.211 106.433C374.874 135.673 333.895 154.7 333.895 154.7C337.44 160.841 345.292 162.945 351.433 159.4Z" fill="#3A9AD2"/>
<circle cx="331.891" cy="79.2241" r="16.2011" transform="rotate(-30 331.891 79.2241)" fill="white"/>
<circle cx="363.07" cy="61.2229" r="16.2011" transform="rotate(-30 363.07 61.2229)" fill="white"/>
<circle cx="330.836" cy="86.836" r="7.20049" transform="rotate(-30 330.836 86.836)" fill="black"/>
<circle cx="361.836" cy="68.836" r="7.20049" transform="rotate(-30 361.836 68.836)" fill="black"/>
<circle cx="376.581" cy="13.2131" r="12.6009" transform="rotate(-30 376.581 13.2131)" fill="#3A9AD2"/>
<circle cx="371.244" cy="124.06" r="12.6009" transform="rotate(-30 371.244 124.06)" fill="#3A9AD2"/>
<circle cx="355.71" cy="90.3472" r="4.5" fill="white"/>
</g>
</svg>
