<svg width="24" height="24" viewBox="0 0 24 24" fill="none" xmlns="http://www.w3.org/2000/svg">
<path fill-rule="evenodd" clip-rule="evenodd" d="M3.71963 8.89993C3.26365 9.27992 3 9.84281 3 10.4364V19.9996C3 21.1042 3.89543 21.9996 5 21.9996H8.00003V22H9.00003H15H16V21.9996H19C20.1046 21.9996 21 21.1042 21 19.9996V10.4364C21 9.84281 20.7364 9.27992 20.2804 8.89993L13.2804 3.0666C12.5387 2.44852 11.4613 2.44852 10.7196 3.0666L3.71963 8.89993ZM16 21.9996V21V14C16 12.8954 15.1046 12 14 12H10C8.89546 12 8.00003 12.8954 8.00003 14V21V21.9996H16ZM14 14H10V20H14V14Z" fill="#46A5DD"/>
</svg>
