<svg width="24" height="24" viewBox="0 0 24 24" fill="none" xmlns="http://www.w3.org/2000/svg">
<path d="M4 10.4367C4 10.14 4.13182 9.85852 4.35982 9.66853L11.3598 3.8352C11.7307 3.52616 12.2693 3.52616 12.6402 3.83519L19.6402 9.66853L20.2804 8.90031L19.6402 9.66853C19.8682 9.85852 20 10.14 20 10.4367V20C20 20.5523 19.5523 21 19 21H5C4.44772 21 4 20.5523 4 20V10.4367Z" stroke="#AFB5D3" stroke-width="2"/>
<path d="M15 21V14C15 13.4477 14.5523 13 14 13H10C9.44775 13 9.00003 13.4477 9.00003 14V21" stroke="#AFB5D3" stroke-width="2" stroke-linecap="round"/>
</svg>
