<svg width="25" height="24" viewBox="0 0 25 24" fill="none" xmlns="http://www.w3.org/2000/svg">
<path fill-rule="evenodd" clip-rule="evenodd" d="M12.25 2.00002C7.27944 2.00002 3.25 6.02945 3.25 11V19.9355C3.25 21.0757 4.17432 22 5.31452 22H19.1855C20.3257 22 21.25 21.0757 21.25 19.9355V11C21.25 6.02945 17.2206 2.00002 12.25 2.00002ZM9.24995 12C10.3545 12 11.25 11.1046 11.25 10C11.25 8.89543 10.3545 8 9.24995 8C8.14538 8 7.24995 8.89543 7.24995 10C7.24995 11.1046 8.14538 12 9.24995 12ZM17.25 10C17.25 11.1046 16.3545 12 15.25 12C14.1454 12 13.25 11.1046 13.25 10C13.25 8.89543 14.1454 8 15.25 8C16.3545 8 17.25 8.89543 17.25 10ZM11.6035 12.6465C11.4083 12.4512 11.0917 12.4512 10.8964 12.6465C10.7012 12.8417 10.7012 13.1583 10.8964 13.3536C11.1197 13.5768 11.5107 13.8397 11.9947 13.9185C12.5096 14.0023 13.0883 13.8688 13.6035 13.3536C13.7988 13.1583 13.7988 12.8417 13.6035 12.6465C13.4083 12.4512 13.0917 12.4512 12.8964 12.6465C12.6117 12.9312 12.3571 12.9643 12.1553 12.9315C11.9226 12.8936 11.7136 12.7565 11.6035 12.6465Z" fill="#46A5DD"/>
</svg>
