<svg width="375" height="290" viewBox="0 0 375 290" fill="none" xmlns="http://www.w3.org/2000/svg">
<mask id="mask0" mask-type="alpha" maskUnits="userSpaceOnUse" x="0" y="0" width="375" height="290">
<path d="M0 0H375V290H0V0Z" fill="#041334"/>
</mask>
<g mask="url(#mask0)">
<g filter="url(#filter0_i)">
<path d="M0 0H375V290H0V0Z" fill="#041334"/>
</g>
<g filter="url(#filter1_f)">
<path d="M249.386 123.871C215.483 101.257 203.868 51.1699 223.441 11.9997C243.015 -27.1704 286.366 -40.5911 320.268 -17.9762C354.17 4.63868 365.786 54.7254 346.213 93.8955C326.639 133.066 283.288 146.486 249.386 123.871Z" fill="url(#paint0_linear)" fill-opacity="0.8"/>
</g>
<g filter="url(#filter2_f)">
<path d="M91.5 354.701C22.1883 354.701 -34 289.782 -34 209.701C-34 129.62 22.1883 64.7012 91.5 64.7012C160.812 64.7012 217 129.62 217 209.701C217 289.782 160.812 354.701 91.5 354.701Z" fill="url(#paint1_linear)" fill-opacity="0.75"/>
</g>
</g>
<defs>
<filter id="filter0_i" x="0" y="-13" width="375" height="303" filterUnits="userSpaceOnUse" color-interpolation-filters="sRGB">
<feFlood flood-opacity="0" result="BackgroundImageFix"/>
<feBlend mode="normal" in="SourceGraphic" in2="BackgroundImageFix" result="shape"/>
<feColorMatrix in="SourceAlpha" type="matrix" values="0 0 0 0 0 0 0 0 0 0 0 0 0 0 0 0 0 0 127 0" result="hardAlpha"/>
<feOffset dy="-13"/>
<feGaussianBlur stdDeviation="13"/>
<feComposite in2="hardAlpha" operator="arithmetic" k2="-1" k3="1"/>
<feColorMatrix type="matrix" values="0 0 0 0 0 0 0 0 0 0 0 0 0 0 0 0 0 0 0.67 0"/>
<feBlend mode="normal" in2="shape" result="effect1_innerShadow"/>
</filter>
<filter id="filter1_f" x="115.933" y="-126.962" width="337.788" height="359.819" filterUnits="userSpaceOnUse" color-interpolation-filters="sRGB">
<feFlood flood-opacity="0" result="BackgroundImageFix"/>
<feBlend mode="normal" in="SourceGraphic" in2="BackgroundImageFix" result="shape"/>
<feGaussianBlur stdDeviation="49" result="effect1_foregroundBlur"/>
</filter>
<filter id="filter2_f" x="-94.4373" y="4.26382" width="371.875" height="410.875" filterUnits="userSpaceOnUse" color-interpolation-filters="sRGB">
<feFlood flood-opacity="0" result="BackgroundImageFix"/>
<feBlend mode="normal" in="SourceGraphic" in2="BackgroundImageFix" result="shape"/>
<feGaussianBlur stdDeviation="30.2187" result="effect1_foregroundBlur"/>
</filter>
<linearGradient id="paint0_linear" x1="340.289" y1="82.7279" x2="231.058" y2="-16.0492" gradientUnits="userSpaceOnUse">
<stop stop-color="#B157D0"/>
<stop offset="1" stop-opacity="0"/>
</linearGradient>
<linearGradient id="paint1_linear" x1="199.359" y1="198.637" x2="-38.6793" y2="138.564" gradientUnits="userSpaceOnUse">
<stop stop-color="#8B22B1"/>
<stop offset="1" stop-color="#2567AF" stop-opacity="0"/>
</linearGradient>
</defs>
</svg>
