<svg width="32" height="32" viewBox="0 0 32 32" fill="#FFFFFF" xmlns="http://www.w3.org/2000/svg">
<path d="M21.7035 18.5757C21.5206 18.5757 21.3682 18.5146 21.2462 18.3925C21.1243 18.2703 21.0633 18.1278 21.0633 17.965C21.0633 17.5375 21.0735 17.2117 21.0938 16.9878C21.1954 16.031 21.5003 15.1861 22.0084 14.4532C22.5165 13.7204 23.2177 12.906 24.112 12.0103C24.803 11.3181 25.3111 10.7481 25.6363 10.3002C25.9819 9.85235 26.1749 9.38412 26.2156 8.89553C26.2969 8.06086 26.0225 7.39923 25.3924 6.91064C24.7827 6.42205 24.0409 6.17775 23.1669 6.17775C21.1954 6.17775 20.0065 7.16511 19.6 9.13983C19.4577 9.60806 19.163 9.84217 18.7158 9.84217H16.0635C15.8603 9.84217 15.6875 9.77092 15.5452 9.62842C15.4233 9.48591 15.3623 9.30269 15.3623 9.07875C15.403 7.95907 15.7383 6.91064 16.3684 5.93346C17.0188 4.95628 17.9435 4.1725 19.1427 3.58212C20.3418 2.97138 21.7544 2.66602 23.3803 2.66602C25.0673 2.66602 26.4493 2.94085 27.5265 3.49051C28.624 4.01982 29.4167 4.70181 29.9045 5.53648C30.4126 6.37115 30.6667 7.23636 30.6667 8.13211C30.6667 9.15001 30.4329 10.0356 29.9655 10.7888C29.5183 11.5421 28.8476 12.4073 27.9533 13.3844C27.3029 14.0766 26.7948 14.6772 26.429 15.1861C26.0835 15.6747 25.8497 16.204 25.7278 16.774C25.6465 17.283 25.5957 17.6291 25.5754 17.8123C25.4737 18.0769 25.362 18.2703 25.24 18.3925C25.1181 18.5146 24.9453 18.5757 24.7217 18.5757H21.7035ZM21.6121 25.6225C21.4088 25.6225 21.2361 25.5513 21.0938 25.4088C20.9515 25.2663 20.8804 25.0932 20.8804 24.8897V22.1719C20.8804 21.9683 20.9515 21.7953 21.0938 21.6527C21.2361 21.5102 21.4088 21.439 21.6121 21.439H24.6303C24.8335 21.439 25.0063 21.5102 25.1486 21.6527C25.3111 21.7953 25.3924 21.9683 25.3924 22.1719V24.8897C25.3924 25.0932 25.3213 25.2663 25.179 25.4088C25.0368 25.5513 24.8538 25.6225 24.6303 25.6225H21.6121Z" fill="#FFFFFF"/>
<path d="M10.2965 12.9009C10.4794 12.9009 10.6318 12.9619 10.7538 13.0841C10.8757 13.2062 10.9367 13.3487 10.9367 13.5116C10.9367 13.9391 10.9265 14.2648 10.9062 14.4888C10.8046 15.4456 10.4997 16.2904 9.99158 17.0233C9.48347 17.7562 8.78228 18.5705 7.888 19.4663C7.19696 20.1584 6.68885 20.7285 6.36366 21.1763C6.01814 21.6242 5.82506 22.0924 5.78441 22.581C5.70312 23.4157 5.97749 24.0773 6.60755 24.5659C7.21729 25.0545 7.95913 25.2988 8.83309 25.2988C10.8046 25.2988 11.9935 24.3115 12.4 22.3367C12.5423 21.8685 12.837 21.6344 13.2842 21.6344H15.9365C16.1397 21.6344 16.3125 21.7056 16.4548 21.8481C16.5767 21.9907 16.6377 22.1739 16.6377 22.3978C16.597 23.5175 16.2617 24.5659 15.6316 25.5431C14.9812 26.5203 14.0565 27.3041 12.8573 27.8944C11.6582 28.5052 10.2456 28.8105 8.61968 28.8105C6.93275 28.8105 5.55068 28.5357 4.47348 27.9861C3.37596 27.4567 2.5833 26.7748 2.09552 25.9401C1.5874 25.1054 1.33335 24.2402 1.33335 23.3445C1.33335 22.3266 1.56708 21.441 2.03454 20.6877C2.48168 19.9345 3.15239 19.0693 4.04667 18.0921C4.69705 17.3999 5.20516 16.7994 5.57101 16.2904C5.91652 15.8019 6.15025 15.2725 6.2722 14.7025C6.3535 14.1936 6.40431 13.8475 6.42464 13.6643C6.52626 13.3996 6.63804 13.2062 6.75999 13.0841C6.88193 12.9619 7.05469 12.9009 7.27826 12.9009H10.2965ZM10.3879 5.85402C10.5912 5.85402 10.7639 5.92528 10.9062 6.06778C11.0485 6.21029 11.1196 6.38333 11.1196 6.58691V9.30469C11.1196 9.50827 11.0485 9.68131 10.9062 9.82381C10.7639 9.96632 10.5912 10.0376 10.3879 10.0376H7.36972C7.16648 10.0376 6.99372 9.96632 6.85145 9.82381C6.68885 9.68131 6.60755 9.50827 6.60755 9.30469V6.58691C6.60755 6.38333 6.67869 6.21029 6.82096 6.06778C6.96323 5.92528 7.14615 5.85402 7.36972 5.85402H10.3879Z" fill="#FFFFFF"/>
</svg>
