<svg width="71" height="36" viewBox="0 0 71 36" fill="none" xmlns="http://www.w3.org/2000/svg">
<mask id="mask0" mask-type="alpha" maskUnits="userSpaceOnUse" x="0" y="4" width="37" height="31">
<rect width="31.7658" height="24.441" transform="matrix(-0.977952 -0.20883 -0.20883 0.977952 36.1694 10.7072)" fill="#C4C4C4"/>
</mask>
<g mask="url(#mask0)">
<path d="M36.6615 28.5145H21.9969" stroke="#43557D" stroke-width="2.90623"/>
<path d="M43.179 17.1086H18.738" stroke="#43557D" stroke-width="2.90623"/>
<path d="M36.6614 22.8116L13.0352 22.8116" stroke="#43557D" stroke-width="2.90623"/>
<path d="M21.1821 28.5145L18.738 28.5145" stroke="#43557D" stroke-width="2.90623"/>
<path d="M17.9233 17.1086L14.6646 17.1086" stroke="#43557D" stroke-width="2.90623"/>
<path d="M12.2205 22.8116L9.77637 22.8116" stroke="#43557D" stroke-width="2.90623"/>
<path d="M17.9233 28.5145L17.1086 28.5145" stroke="#43557D" stroke-width="2.90623"/>
<path d="M13.8499 17.1086L13.0352 17.1086" stroke="#43557D" stroke-width="2.90623"/>
<path d="M8.96167 22.8116L8.14697 22.8116" stroke="#43557D" stroke-width="2.90623"/>
</g>
<circle cx="33.0005" cy="13.7466" r="4.38958" fill="#3A9AD2" stroke="#041334" stroke-width="1.6294"/>
<path d="M38.3238 11.545C39.8103 4.80195 45.7862 0 52.6911 0C62.0931 0 69.0825 8.69809 67.0584 17.8796L63.9385 32.0321C63.5257 33.9046 61.8662 35.2381 59.9487 35.2381H38.1849C35.574 35.2381 33.6331 32.8226 34.1952 30.2729L38.3238 11.545Z" fill="#46A5DD"/>
<path d="M37.5101 35.238H59.9366C61.8596 35.238 63.5223 33.897 63.9295 32.0176L67.2067 16.8925C67.2067 16.8925 61.4661 22.8645 53.7838 27.7253C45.868 32.7338 34.5116 31.0603 34.5116 31.0603C33.8186 33.112 35.3446 35.238 37.5101 35.238Z" fill="#3A9AD2"/>
<circle cx="55.4553" cy="12.9516" r="4.59627" fill="white"/>
<circle cx="65.6693" cy="12.9516" r="4.59627" fill="white"/>
<circle cx="55.4555" cy="12.9517" r="2.04279" fill="black"/>
<circle cx="65.6693" cy="12.9517" r="2.04279" fill="black"/>
<path fill-rule="evenodd" clip-rule="evenodd" d="M50.859 6.53906C50.4577 6.53906 50.1324 6.86435 50.1324 7.26562V9.4453C50.1324 9.84656 50.4577 10.1719 50.859 10.1719H69.3862C69.7875 10.1719 70.1128 9.84656 70.1128 9.44529V7.26562C70.1128 6.86435 69.7875 6.53906 69.3862 6.53906H50.859ZM50.859 14.8944C50.4578 14.8944 50.1325 15.2197 50.1325 15.621V17.8007C50.1325 18.2019 50.4578 18.5272 50.859 18.5272H69.3863C69.7875 18.5272 70.1128 18.2019 70.1128 17.8007V15.621C70.1128 15.2197 69.7875 14.8944 69.3863 14.8944H50.859Z" fill="#46A5DD"/>
<circle cx="67.1486" cy="25.0082" r="3.57488" fill="#3A9AD2"/>
<path d="M56.1266 18.5271C55.7633 18.5271 54.4192 18.5271 51.9489 18.5271" stroke="white" stroke-width="0.726558" stroke-linecap="round" stroke-linejoin="round"/>
</svg>
