<svg width="24" height="24" viewBox="0 0 24 24" fill="none" xmlns="http://www.w3.org/2000/svg">
<path fill-rule="evenodd" clip-rule="evenodd" d="M5.98902 21.9662C4.79802 21.9662 3.80002 21.5972 3.10202 20.8982C1.83302 19.6292 1.69002 17.4852 2.70002 14.8592C3.09331 13.8619 3.5812 12.9045 4.15702 12.0002C3.55402 11.0362 3.05902 10.0732 2.70002 9.14118C1.69002 6.51518 1.83302 4.37118 3.10202 3.10218C3.80102 2.40318 4.79902 2.03418 5.98902 2.03418C7.73102 2.03418 9.84502 2.81118 12.001 4.16118C14.158 2.81218 16.271 2.03418 18.013 2.03418C19.204 2.03418 20.202 2.40318 20.9 3.10218C22.168 4.37018 22.311 6.51518 21.301 9.14118C20.9077 10.1385 20.4198 11.0959 19.844 12.0002C20.447 12.9642 20.943 13.9272 21.301 14.8592C22.311 17.4852 22.169 19.6292 20.9 20.8982C20.201 21.5972 19.203 21.9662 18.013 21.9662C16.271 21.9662 14.157 21.1892 12.001 19.8392C9.84402 21.1882 7.73102 21.9662 5.98902 21.9662ZM19.485 19.4842C20.141 18.8282 20.122 17.3672 19.433 15.5772C19.21 14.9982 18.923 14.4032 18.587 13.8022C17.2027 15.5938 15.5954 17.2015 13.804 18.5862C15.366 19.4632 16.845 19.9662 18.012 19.9662C18.67 19.9662 19.165 19.8042 19.485 19.4842ZM9.06602 14.9342C9.97478 15.8403 10.956 16.6708 12 17.4172C14.0931 15.9181 15.9284 14.0886 17.434 12.0002C16.6807 10.9567 15.8447 9.97556 14.934 9.06618C14.0253 8.16001 13.044 7.32958 12 6.58318C9.90694 8.08225 8.07164 9.91181 6.56602 12.0002C7.31933 13.0436 8.15536 14.0248 9.06602 14.9342ZM19.485 4.51618C19.164 4.19618 18.669 4.03418 18.012 4.03418C16.845 4.03418 15.366 4.53818 13.804 5.41418C15.5966 6.79753 17.204 8.40535 18.587 10.1982C18.923 9.59718 19.21 9.00218 19.433 8.42318C20.123 6.63318 20.141 5.17218 19.485 4.51618ZM4.51502 4.51618C3.85902 5.17218 3.87802 6.63318 4.56702 8.42318C4.80687 9.03403 5.08957 9.62717 5.41302 10.1982C6.79599 8.40535 8.40347 6.79753 10.196 5.41418C8.63402 4.53718 7.15502 4.03418 5.98802 4.03418C5.33002 4.03418 4.83502 4.19618 4.51502 4.51618ZM5.41302 13.8022C5.07702 14.4032 4.79002 14.9982 4.56702 15.5772C3.87802 17.3672 3.85902 18.8282 4.51502 19.4842C4.83602 19.8042 5.33102 19.9662 5.98802 19.9662C7.15502 19.9662 8.63302 19.4632 10.196 18.5862C8.40347 17.2028 6.79599 15.595 5.41302 13.8022ZM14.574 11.9998C14.574 13.4214 13.4216 14.5738 12 14.5738C10.5784 14.5738 9.42602 13.4214 9.42602 11.9998C9.42602 10.5782 10.5784 9.42578 12 9.42578C13.4216 9.42578 14.574 10.5782 14.574 11.9998Z" fill="#46A5DD"/>
</svg>
