<svg width="24" height="24" viewBox="0 0 24 24" fill="none" xmlns="http://www.w3.org/2000/svg">
<path d="M8.60979 22C8.12181 21.9971 7.648 21.8357 7.25979 21.54L5.18979 20C4.7121 19.6276 4.39515 19.0863 4.30402 18.4875C4.21289 17.8887 4.35451 17.2777 4.69979 16.78C4.88248 16.5102 4.99858 16.201 5.03856 15.8777C5.07855 15.5543 5.04127 15.2261 4.92979 14.92L4.86979 14.76C4.79217 14.4829 4.6503 14.228 4.4557 14.0161C4.2611 13.8041 4.01925 13.641 3.74979 13.54H3.58979C3.00566 13.3436 2.5226 12.9247 2.2455 12.3742C1.9684 11.8237 1.91963 11.1862 2.10979 10.6L2.92979 8C3.00527 7.69876 3.14425 7.41713 3.33741 7.17396C3.53056 6.93078 3.77345 6.73169 4.04979 6.59C4.30714 6.4574 4.58872 6.3784 4.87749 6.35777C5.16626 6.33715 5.45621 6.37533 5.72979 6.47C6.02767 6.57025 6.34554 6.59624 6.65575 6.5457C6.96596 6.49516 7.25913 6.36962 7.50979 6.18L7.63979 6.08C7.86669 5.89895 8.05006 5.6693 8.1764 5.40796C8.30274 5.14663 8.36883 4.86027 8.36979 4.57V4.33C8.3671 3.71813 8.60624 3.12997 9.03514 2.69358C9.46404 2.25719 10.048 2.00791 10.6598 2H13.2098C13.5075 2.0008 13.8021 2.0604 14.0766 2.17538C14.3512 2.29036 14.6004 2.45845 14.8098 2.67C15.2501 3.11779 15.4947 3.72202 15.4898 4.35V4.63C15.4847 4.90575 15.5445 5.17884 15.6644 5.42723C15.7842 5.67562 15.9608 5.89237 16.1798 6.06L16.2898 6.14C16.5142 6.3083 16.776 6.41984 17.0529 6.46511C17.3297 6.51039 17.6134 6.48805 17.8798 6.4L18.2198 6.29C18.5079 6.19451 18.8122 6.15802 19.1147 6.1827C19.4171 6.20737 19.7116 6.29272 19.9803 6.43364C20.2491 6.57456 20.4867 6.76817 20.6791 7.00292C20.8714 7.23767 21.0145 7.50876 21.0998 7.8L21.8898 10.32C22.0726 10.9024 22.0226 11.533 21.7504 12.0793C21.4782 12.6256 21.0048 13.0452 20.4298 13.25L20.2298 13.32C19.9356 13.4163 19.6696 13.5834 19.4552 13.8066C19.2407 14.0298 19.0843 14.3022 18.9998 14.6C18.9202 14.8768 18.9013 15.1675 18.9445 15.4523C18.9876 15.7371 19.0918 16.0092 19.2498 16.25L19.5098 16.63C19.8546 17.1304 19.9949 17.7438 19.9019 18.3444C19.809 18.945 19.4898 19.4872 19.0098 19.86L16.9998 21.41C16.757 21.5957 16.4787 21.7297 16.1821 21.8039C15.8855 21.878 15.5769 21.8906 15.2752 21.8409C14.9736 21.7913 14.6853 21.6804 14.4281 21.5152C14.1709 21.3499 13.9503 21.1337 13.7798 20.88L13.6598 20.71C13.496 20.4639 13.2725 20.2632 13.0102 20.1268C12.7479 19.9904 12.4553 19.9227 12.1598 19.93C11.8778 19.9373 11.6014 20.0108 11.353 20.1445C11.1046 20.2783 10.8911 20.4686 10.7298 20.7L10.4998 21.03C10.3292 21.2855 10.1082 21.5034 9.85018 21.6702C9.5922 21.8371 9.30279 21.9493 8.99979 22C8.8701 22.0127 8.73948 22.0127 8.60979 22ZM4.39979 11.62C4.96448 11.8214 5.47402 12.1525 5.88739 12.5867C6.30076 13.0209 6.60643 13.5461 6.77979 14.12V14.24C6.99573 14.8366 7.06663 15.4761 6.98664 16.1055C6.90666 16.735 6.67808 17.3363 6.31979 17.86C6.25655 17.9299 6.22153 18.0208 6.22153 18.115C6.22153 18.2092 6.25655 18.3001 6.31979 18.37L8.46979 20C8.49784 20.022 8.53028 20.0378 8.56493 20.0463C8.59958 20.0547 8.63564 20.0557 8.67069 20.049C8.70574 20.0424 8.73896 20.0284 8.76813 20.0078C8.79729 19.9873 8.82173 19.9608 8.83979 19.93L9.06979 19.6C9.41668 19.0988 9.87993 18.6891 10.4198 18.4062C10.9598 18.1232 11.5602 17.9754 12.1698 17.9754C12.7794 17.9754 13.3798 18.1232 13.9197 18.4062C14.4596 18.6891 14.9229 19.0988 15.2698 19.6L15.3898 19.78C15.4328 19.841 15.497 19.8838 15.5698 19.9C15.6032 19.9049 15.6373 19.903 15.6699 19.8944C15.7026 19.8859 15.7331 19.8707 15.7598 19.85L17.8198 18.29C17.8919 18.2328 17.9393 18.1501 17.9524 18.0589C17.9654 17.9678 17.943 17.8751 17.8898 17.8L17.6298 17.42C17.291 16.926 17.0675 16.3622 16.9758 15.7703C16.884 15.1783 16.9264 14.5734 17.0998 14C17.2755 13.3974 17.5934 12.8458 18.0267 12.3916C18.46 11.9374 18.9961 11.5939 19.5898 11.39L19.7898 11.32C19.8731 11.2866 19.9399 11.2216 19.9755 11.1392C20.0111 11.0567 20.0126 10.9636 19.9798 10.88L19.1998 8.39C19.1811 8.34643 19.1537 8.30713 19.1193 8.27446C19.0849 8.2418 19.0443 8.21647 18.9998 8.2C18.9703 8.18507 18.9378 8.17728 18.9048 8.17728C18.8718 8.17728 18.8392 8.18507 18.8098 8.2L18.4698 8.31C17.8946 8.49982 17.282 8.54712 16.6845 8.44783C16.0871 8.34855 15.5226 8.10564 15.0398 7.74L14.9998 7.65C14.5365 7.29912 14.1608 6.84561 13.9023 6.32509C13.6437 5.80456 13.5094 5.23119 13.5098 4.65V4.34C13.5116 4.24362 13.4757 4.15033 13.4098 4.08C13.3523 4.02801 13.2773 3.99946 13.1998 4H10.6598C10.6191 4.00254 10.5792 4.01311 10.5426 4.03109C10.5059 4.04906 10.4732 4.0741 10.4462 4.10476C10.4193 4.13542 10.3987 4.1711 10.3856 4.20976C10.3724 4.24841 10.3671 4.28927 10.3698 4.33V4.58C10.3699 5.17704 10.2328 5.76612 9.96931 6.30185C9.70578 6.83758 9.32277 7.30565 8.84979 7.67L8.71979 7.77C8.20952 8.15851 7.61152 8.41553 6.97849 8.51842C6.34546 8.62131 5.69684 8.5669 5.08979 8.36C5.04437 8.34476 4.99521 8.34476 4.94979 8.36C4.89335 8.39429 4.85085 8.44741 4.82979 8.51L3.99979 11.12C3.97086 11.2089 3.97764 11.3056 4.0187 11.3895C4.05975 11.4735 4.13187 11.5382 4.21979 11.57L4.39979 11.62Z" fill="#485380"/>
<path d="M12 15.5C11.3078 15.5 10.6311 15.2947 10.0555 14.9101C9.47993 14.5256 9.03133 13.9789 8.76642 13.3394C8.50152 12.6999 8.4322 11.9961 8.56725 11.3172C8.7023 10.6383 9.03564 10.0146 9.52513 9.52513C10.0146 9.03564 10.6383 8.7023 11.3172 8.56725C11.9961 8.4322 12.6999 8.50152 13.3394 8.76642C13.9789 9.03133 14.5256 9.47993 14.9101 10.0555C15.2947 10.6311 15.5 11.3078 15.5 12C15.5 12.9283 15.1313 13.8185 14.4749 14.4749C13.8185 15.1313 12.9283 15.5 12 15.5ZM12 10.5C11.7033 10.5 11.4133 10.588 11.1666 10.7528C10.92 10.9176 10.7277 11.1519 10.6142 11.426C10.5007 11.7001 10.4709 12.0017 10.5288 12.2926C10.5867 12.5836 10.7296 12.8509 10.9393 13.0607C11.1491 13.2704 11.4164 13.4133 11.7074 13.4712C11.9983 13.5291 12.2999 13.4994 12.574 13.3858C12.8481 13.2723 13.0824 13.08 13.2472 12.8334C13.412 12.5867 13.5 12.2967 13.5 12C13.5 11.6022 13.342 11.2206 13.0607 10.9393C12.7794 10.658 12.3978 10.5 12 10.5Z" fill="#485380"/>
</svg>
